<svg width="180" height="180" viewBox="0 0 180 180" fill="none" xmlns="http://www.w3.org/2000/svg">
<ellipse opacity="0.1" cx="90" cy="174.6" rx="90" ry="5.4" fill="#2B2A7F"/>
<path fill-rule="evenodd" clip-rule="evenodd" d="M25.2002 35.3424C25.2002 32.7233 27.3234 30.6001 29.9425 30.6001C32.5615 30.6001 34.6847 32.7233 34.6847 35.3424V45.098C34.6847 47.7171 32.5615 49.8403 29.9425 49.8403C27.3234 49.8403 25.2002 47.7171 25.2002 45.098V35.3424ZM29.9425 34.2001C29.3116 34.2001 28.8002 34.7115 28.8002 35.3424V45.098C28.8002 45.7289 29.3116 46.2403 29.9425 46.2403C30.5733 46.2403 31.0847 45.7289 31.0847 45.098V35.3424C31.0847 34.7115 30.5733 34.2001 29.9425 34.2001ZM46.8002 54.0001C46.8002 49.0295 50.8296 45.0001 55.8002 45.0001H115.697C113.122 48.0643 111.264 51.7502 110.38 55.8001H46.8002V54.0001ZM109.863 59.4001H39.6002C34.6296 59.4001 30.6002 63.4295 30.6002 68.4001V77.4001L115.697 77.4001C112.017 73.0197 109.8 67.3688 109.8 61.2001C109.8 60.5949 109.822 59.9946 109.863 59.4001ZM138.6 86.1449V122.4H142.2C147.171 122.4 151.2 118.371 151.2 113.4V80.5037C147.688 83.4545 143.358 85.4643 138.6 86.1449ZM154.8 76.7903V113.4C154.8 120.359 149.159 126 142.2 126H138.6V127.8C138.6 134.759 132.959 140.4 126 140.4H39.6002C32.6414 140.4 27.0002 134.759 27.0002 127.8V68.4001C27.0002 61.4413 32.6414 55.8001 39.6002 55.8001H43.2002V54.0001C43.2002 47.0413 48.8414 41.4001 55.8002 41.4001H118.8V41.8965C123.181 38.2165 128.832 36.0001 135 36.0001C148.918 36.0001 160.2 47.2825 160.2 61.2001C160.2 67.0862 158.182 72.501 154.8 76.7903ZM30.6002 88.2001L135 88.2001V122.4V126V127.8C135 132.771 130.971 136.8 126 136.8H39.6002C34.6296 136.8 30.6002 132.771 30.6002 127.8V88.2001ZM150.542 131.4C147.923 131.4 145.8 133.523 145.8 136.142V145.898C145.8 148.517 147.923 150.64 150.542 150.64C153.162 150.64 155.285 148.517 155.285 145.898V136.142C155.285 133.523 153.162 131.4 150.542 131.4ZM149.4 136.142C149.4 135.512 149.912 135 150.542 135C151.173 135 151.685 135.512 151.685 136.142V145.898C151.685 146.529 151.173 147.04 150.542 147.04C149.912 147.04 149.4 146.529 149.4 145.898V136.142ZM113.4 61.2001C113.4 49.2707 123.071 39.6001 135 39.6001C146.93 39.6001 156.6 49.2707 156.6 61.2001C156.6 73.1294 146.93 82.8001 135 82.8001C123.071 82.8001 113.4 73.1294 113.4 61.2001ZM130.5 49.5001C130.5 47.0148 132.515 45.0001 135 45.0001C137.485 45.0001 139.5 47.0148 139.5 49.5001V60.3001C139.5 62.7854 137.485 64.8001 135 64.8001C132.515 64.8001 130.5 62.7854 130.5 60.3001V49.5001ZM135 48.6001C134.503 48.6001 134.1 49.003 134.1 49.5001V60.3001C134.1 60.7972 134.503 61.2001 135 61.2001C135.497 61.2001 135.9 60.7972 135.9 60.3001V49.5001C135.9 49.003 135.497 48.6001 135 48.6001ZM135 77.4001C132.515 77.4001 130.5 75.3854 130.5 72.9001C130.5 70.4148 132.515 68.4001 135 68.4001C137.485 68.4001 139.5 70.4148 139.5 72.9001C139.5 75.3854 137.485 77.4001 135 77.4001ZM134.1 72.9001C134.1 73.3972 134.503 73.8001 135 73.8001C135.497 73.8001 135.9 73.3972 135.9 72.9001C135.9 72.403 135.497 72.0001 135 72.0001C134.503 72.0001 134.1 72.403 134.1 72.9001ZM72.9002 104.4C70.4149 104.4 68.4002 106.415 68.4002 108.9C68.4002 111.385 70.4149 113.4 72.9002 113.4H121.5C123.985 113.4 126 111.385 126 108.9C126 106.415 123.985 104.4 121.5 104.4H72.9002ZM72.0002 108.9C72.0002 108.403 72.4031 108 72.9002 108H121.5C121.997 108 122.4 108.403 122.4 108.9C122.4 109.397 121.997 109.8 121.5 109.8H72.9002C72.4031 109.8 72.0002 109.397 72.0002 108.9ZM49.5002 117C53.9737 117 57.6002 113.374 57.6002 108.9C57.6002 104.427 53.9737 100.8 49.5002 100.8C45.0267 100.8 41.4002 104.427 41.4002 108.9C41.4002 113.374 45.0267 117 49.5002 117Z" fill="#2B2A7F"/>
</svg>
