<svg width="180" height="180" viewBox="0 0 180 180" fill="none" xmlns="http://www.w3.org/2000/svg">
<ellipse opacity="0.1" cx="90" cy="174.6" rx="90" ry="5.4" fill="#2B2A7F"/>
<path fill-rule="evenodd" clip-rule="evenodd" d="M61.1996 32.4002C61.1996 20.4708 70.8703 10.8002 82.7996 10.8002C94.729 10.8002 104.4 20.4708 104.4 32.4002C104.4 44.3295 94.729 54.0002 82.7996 54.0002C70.8703 54.0002 61.1996 44.3295 61.1996 32.4002ZM82.7996 7.2002C68.882 7.2002 57.5996 18.4826 57.5996 32.4002C57.5996 37.7543 59.2693 42.7184 62.1165 46.8002H61.915C47.0034 46.8002 34.915 58.8885 34.915 73.8002V93.6002H26.9996C24.0173 93.6002 21.5996 96.0179 21.5996 99.0002C21.5996 101.983 24.0173 104.4 26.9996 104.4H42.115H84.5996H85.315V162C85.315 164.983 87.7327 167.4 90.715 167.4H97.915C100.897 167.4 103.315 164.983 103.315 162V104.4H142.915C147.886 104.4 151.915 100.371 151.915 95.4002V67.4079C151.915 56.6645 143.694 47.8412 133.2 46.8859V34.2002C133.2 32.212 131.588 30.6002 129.6 30.6002H126C124.011 30.6002 122.4 32.212 122.4 34.2002V46.8002H103.483C106.33 42.7184 108 37.7543 108 32.4002C108 18.4826 96.7172 7.2002 82.7996 7.2002ZM100.436 50.4002C95.8908 54.8541 89.6659 57.6002 82.7996 57.6002C81.7655 57.6002 80.7459 57.5379 79.7444 57.4169C83.2239 61.6211 85.315 67.0165 85.315 72.9002V100.8H88.915H99.715H142.915C145.897 100.8 148.315 98.3825 148.315 95.4002V67.4079C148.315 58.6544 141.702 51.4454 133.2 50.5043V64.8002C133.2 64.9135 133.194 65.0259 133.184 65.1373C133.194 65.3238 133.2 65.5115 133.2 65.7002C133.2 71.1678 128.767 75.6002 123.3 75.6002C117.832 75.6002 113.4 71.1678 113.4 65.7002C113.4 60.536 117.354 56.2953 122.4 55.8406V50.4002H100.436ZM88.915 104.4H99.715V162C99.715 162.994 98.9092 163.8 97.915 163.8H90.715C89.7209 163.8 88.915 162.994 88.915 162V104.4ZM129.6 34.2002H126V59.6595L124.002 59.4387C123.772 59.4133 123.538 59.4002 123.3 59.4002C119.82 59.4002 117 62.2208 117 65.7002C117 69.1796 119.82 72.0002 123.3 72.0002C126.779 72.0002 129.6 69.1796 129.6 65.7002C129.6 65.5388 129.594 65.3792 129.582 65.2215L129.566 65.0109L129.599 64.8025L129.6 64.8002V34.2002ZM142.2 112.742C142.2 110.123 144.323 108 146.942 108H156.698C159.317 108 161.44 110.123 161.44 112.742C161.44 115.362 159.317 117.485 156.698 117.485H146.942C144.323 117.485 142.2 115.362 142.2 112.742ZM146.942 111.6C146.311 111.6 145.8 112.112 145.8 112.742C145.8 113.373 146.311 113.885 146.942 113.885H156.698C157.328 113.885 157.84 113.373 157.84 112.742C157.84 112.112 157.328 111.6 156.698 111.6H146.942ZM78.2996 20.7002C78.2996 18.2149 80.3143 16.2002 82.7996 16.2002C85.2849 16.2002 87.2996 18.2149 87.2996 20.7002V31.5002C87.2996 33.9855 85.2849 36.0002 82.7996 36.0002C80.3143 36.0002 78.2996 33.9855 78.2996 31.5002V20.7002ZM82.7996 19.8002C82.3026 19.8002 81.8996 20.2031 81.8996 20.7002V31.5002C81.8996 31.9972 82.3026 32.4002 82.7996 32.4002C83.2967 32.4002 83.6996 31.9972 83.6996 31.5002V20.7002C83.6996 20.2031 83.2967 19.8002 82.7996 19.8002ZM82.7996 48.6002C80.3143 48.6002 78.2996 46.5855 78.2996 44.1002C78.2996 41.6149 80.3143 39.6002 82.7996 39.6002C85.2849 39.6002 87.2996 41.6149 87.2996 44.1002C87.2996 46.5855 85.2849 48.6002 82.7996 48.6002ZM81.8996 44.1002C81.8996 44.5973 82.3026 45.0002 82.7996 45.0002C83.2967 45.0002 83.6996 44.5973 83.6996 44.1002C83.6996 43.6031 83.2967 43.2002 82.7996 43.2002C82.3026 43.2002 81.8996 43.6031 81.8996 44.1002Z" fill="#2B2A7F"/>
</svg>
