<svg width="50" height="50" viewBox="0 0 50 50" fill="none" xmlns="http://www.w3.org/2000/svg">
<path d="M8.33332 34.3748C8.33332 37.8265 11.1316 40.6248 14.5833 40.6248C14.5833 43.5013 16.9152 45.8331 19.7917 45.8331C22.6681 45.8331 25 43.5013 25 40.6248C25 43.5013 27.3319 45.8329 30.2083 45.8329C33.0848 45.8329 35.4167 43.501 35.4167 40.6246C38.8685 40.6246 41.6667 37.8263 41.6667 34.3746C41.6667 33.1898 41.3371 32.0821 40.7646 31.1381C43.6514 30.5858 45.8333 28.0475 45.8333 24.9996C45.8333 21.9515 43.6514 19.4131 40.7646 18.8609C41.3371 17.9169 41.6667 16.8092 41.6667 15.6245C41.6667 12.1727 38.8685 9.3745 35.4167 9.3745C35.4167 6.498 33.0848 4.16617 30.2083 4.16617C27.3319 4.16617 25 6.49821 25 9.37469C25 6.49821 22.6681 4.16636 19.7917 4.16636C16.9152 4.16636 14.5833 6.49821 14.5833 9.37469C11.1316 9.37469 8.33332 12.1729 8.33332 15.6247C8.33332 16.8094 8.66295 17.9171 9.23549 18.8611C6.34847 19.4133 4.16666 21.9517 4.16666 24.9998C4.16666 28.0477 6.34847 30.586 9.23549 31.1383C8.66295 32.0823 8.33332 33.19 8.33332 34.3748Z" stroke="#141B34" stroke-width="3.125" stroke-linecap="round" stroke-linejoin="round"/>
<path d="M15.625 30.2081L19.4623 18.6963C19.659 18.1061 20.2112 17.7081 20.8333 17.7081C21.4554 17.7081 22.0077 18.1061 22.2044 18.6963L26.0417 30.2081M32.2917 17.7081V30.2081M17.7083 26.0414H23.9583" stroke="#141B34" stroke-width="3.125" stroke-linecap="round" stroke-linejoin="round"/>
</svg>
