<svg width="18" height="18" viewBox="0 0 18 18" fill="none" xmlns="http://www.w3.org/2000/svg">
<path d="M8.182 18C6.012 18 3.93088 17.138 2.39645 15.6035C0.86203 14.0691 0 11.988 0 9.818C0 7.648 0.86203 5.56687 2.39645 4.03245C3.93088 2.49803 6.012 1.636 8.182 1.636C8.448 1.636 8.723 1.65 9 1.677V0.818C9.00026 0.601134 9.08653 0.393226 9.23988 0.239879C9.39323 0.0865315 9.60113 0.000264632 9.818 0C11.9873 0.00238222 14.067 0.865177 15.6009 2.39908C17.1348 3.93299 17.9976 6.01273 18 8.182C17.9997 8.39887 17.9135 8.60677 17.7601 8.76012C17.6068 8.91347 17.3989 8.99974 17.182 9H16.323C16.35 9.281 16.364 9.556 16.364 9.818C16.3616 11.9873 15.4988 14.067 13.9649 15.6009C12.431 17.1348 10.3513 17.9976 8.182 18ZM8.182 3.272C6.88732 3.272 5.62172 3.65592 4.54524 4.3752C3.46875 5.09448 2.62974 6.11683 2.13428 7.31295C1.63883 8.50908 1.5092 9.82526 1.76178 11.0951C2.01436 12.3649 2.6378 13.5312 3.55328 14.4467C4.46875 15.3622 5.63514 15.9856 6.90494 16.2382C8.17474 16.4908 9.49092 16.3612 10.687 15.8657C11.8832 15.3703 12.9055 14.5312 13.6248 13.4548C14.3441 12.3783 14.728 11.1127 14.728 9.818C14.728 9.54451 14.7106 9.27129 14.676 9H9.818C9.60113 8.99974 9.39323 8.91347 9.23988 8.76012C9.08653 8.60677 9.00026 8.39887 9 8.182V3.324C8.72871 3.28941 8.45549 3.27204 8.182 3.272ZM10.636 1.687V7.364H16.312C16.1332 5.92087 15.4778 4.57874 14.4495 3.55049C13.4213 2.52225 12.0791 1.86676 10.636 1.688V1.687Z" fill="black"/>
</svg>
