<svg width="18" height="13" viewBox="0 0 18 13" fill="none" xmlns="http://www.w3.org/2000/svg">
<path d="M13.1282 12.7544H3.75322C2.88654 12.7554 2.04629 12.456 1.37544 11.9073C0.70458 11.3586 0.244557 10.5944 0.0736348 9.74474C-0.097287 8.89509 0.0314508 8.01245 0.437945 7.24701C0.844439 6.48158 1.50358 5.88062 2.30322 5.54638C2.47532 4.23353 3.05194 3.00684 3.95302 2.03666C4.85409 1.06647 6.0349 0.400921 7.33148 0.132436C8.62805 -0.136049 9.97606 0.00584942 11.1883 0.538428C12.4006 1.07101 13.4169 1.96784 14.0962 3.10438C15.2809 3.34432 16.3343 4.01584 17.0518 4.98862C17.7693 5.9614 18.0999 7.16606 17.9792 8.36881C17.8586 9.57155 17.2955 10.6866 16.3991 11.4975C15.5027 12.3085 14.337 12.7575 13.1282 12.7574V12.7544ZM8.62822 1.50438C7.37766 1.50259 6.17438 1.98214 5.26786 2.84361C4.36135 3.70507 3.82113 4.88236 3.75922 6.13138C3.75156 6.2915 3.69274 6.44494 3.5914 6.56914C3.49006 6.69335 3.35154 6.78176 3.19622 6.82138C2.66554 6.95789 2.20283 7.28319 1.89478 7.73636C1.58674 8.18953 1.45448 8.73946 1.52279 9.28314C1.5911 9.82682 1.8553 10.3269 2.26588 10.6898C2.67646 11.0527 3.20526 11.2534 3.75322 11.2544H13.1272C13.9862 11.2518 14.8119 10.922 15.4361 10.332C16.0604 9.742 16.4363 8.93623 16.4873 8.07879C16.5383 7.22134 16.2605 6.37671 15.7106 5.71689C15.1606 5.05707 14.3798 4.63169 13.5272 4.52738C13.4059 4.51269 13.29 4.46857 13.1896 4.39885C13.0892 4.32914 13.0074 4.23594 12.9512 4.12738C12.54 3.33617 11.9193 2.67311 11.157 2.21056C10.3947 1.74801 9.51991 1.50373 8.62822 1.50438Z" fill="black"/>
</svg>
