<svg width="17" height="18" viewBox="0 0 17 18" fill="none" xmlns="http://www.w3.org/2000/svg">
<path d="M8.38134 18C7.997 17.9994 7.6189 17.9028 7.28134 17.719L0.803336 14.188C0.560324 14.0561 0.357417 13.8611 0.216025 13.6235C0.0746334 13.3859 0 13.1145 0 12.838C0 12.5615 0.0746334 12.2901 0.216025 12.0525C0.357417 11.8149 0.560324 11.6199 0.803336 11.488L1.85134 10.916L0.803336 10.348C0.560324 10.2161 0.357417 10.0211 0.216025 9.78348C0.0746334 9.54587 0 9.2745 0 8.99801C0 8.72151 0.0746334 8.45015 0.216025 8.21254C0.357417 7.97493 0.560324 7.77989 0.803336 7.64801L1.85134 7.08001L0.803336 6.50901C0.560324 6.37712 0.357417 6.18209 0.216025 5.94448C0.0746334 5.70687 0 5.4355 0 5.15901C0 4.88251 0.0746334 4.61115 0.216025 4.37354C0.357417 4.13593 0.560324 3.9409 0.803336 3.80901L7.27834 0.282009C7.61671 0.0969763 7.99618 0 8.38184 0C8.7675 0 9.14696 0.0969763 9.48534 0.282009L15.9593 3.81301C16.2023 3.9449 16.4053 4.13993 16.5466 4.37754C16.688 4.61515 16.7627 4.88652 16.7627 5.16301C16.7627 5.4395 16.688 5.71087 16.5466 5.94848C16.4053 6.18609 16.2023 6.38112 15.9593 6.51301L14.9123 7.08401L15.9593 7.65601C16.2023 7.7879 16.4053 7.98293 16.5466 8.22054C16.688 8.45815 16.7627 8.72951 16.7627 9.00601C16.7627 9.2825 16.688 9.55387 16.5466 9.79148C16.4053 10.0291 16.2023 10.2241 15.9593 10.356L14.9123 10.927L15.9593 11.499C16.2023 11.6309 16.4053 11.8259 16.5466 12.0635C16.688 12.3011 16.7627 12.5725 16.7627 12.849C16.7627 13.1255 16.688 13.3969 16.5466 13.6345C16.4053 13.8721 16.2023 14.0671 15.9593 14.199L9.48434 17.718C9.14591 17.9024 8.76676 17.9994 8.38134 18ZM3.45434 11.794L1.53834 12.839L8.01334 16.371C8.12605 16.4325 8.25242 16.4648 8.38084 16.4648C8.50925 16.4648 8.63562 16.4325 8.74834 16.371L15.2243 12.839L13.3033 11.794L9.48434 13.88C9.14596 14.065 8.76649 14.162 8.38084 14.162C7.99518 14.162 7.61571 14.065 7.27734 13.88L3.45434 11.794ZM3.45434 7.95601L1.53834 9.00001L8.01334 12.532C8.12605 12.5935 8.25242 12.6258 8.38084 12.6258C8.50925 12.6258 8.63562 12.5935 8.74834 12.532L15.2243 9.00001L13.3033 7.95501L9.48434 10.04C9.14596 10.225 8.76649 10.322 8.38084 10.322C7.99518 10.322 7.61571 10.225 7.27734 10.04L3.45434 7.95601ZM8.38134 1.53601C8.25275 1.53616 8.12625 1.56848 8.01334 1.63001L1.53834 5.16101L8.01334 8.69301C8.12605 8.75454 8.25242 8.78678 8.38084 8.78678C8.50925 8.78678 8.63562 8.75454 8.74834 8.69301L15.2243 5.16101L8.74834 1.62901C8.63579 1.56748 8.50961 1.53516 8.38134 1.53501V1.53601Z" fill="black"/>
</svg>
