<svg width="40" height="40" viewBox="0 0 40 40" fill="none" xmlns="http://www.w3.org/2000/svg">
<g clip-path="url(#clip0_2001_3691)">
<path d="M9 0.75H26.0439L34.25 8.28711V36C34.25 37.7949 32.7948 39.2499 31 39.25H9C7.20507 39.25 5.75 37.7949 5.75 36V4C5.75 2.20508 7.20508 0.75 9 0.75Z" stroke="#D0D5DD" stroke-width="1.5"/>
<mask id="path-2-inside-1_2001_3691" fill="white">
<path d="M25 1H33.5V9.5H26C25.4477 9.5 25 9.05229 25 8.5V1Z"/>
</mask>
<path d="M25 1H33.5H25ZM33.5 10.5H26C24.8954 10.5 24 9.60457 24 8.5H26H33.5V10.5ZM26 10.5C24.8954 10.5 24 9.60457 24 8.5V1H26V8.5V10.5ZM33.5 1V9.5V1Z" fill="#D0D5DD" mask="url(#path-2-inside-1_2001_3691)"/>
<rect x="1" y="20" width="30" height="13" rx="2" fill="#17B26A"/>
<path d="M8.91613 27.12C8.91613 27.28 8.90613 27.4467 8.88613 27.62H5.01613C5.0428 27.9667 5.1528 28.2333 5.34613 28.42C5.54613 28.6 5.78947 28.69 6.07613 28.69C6.5028 28.69 6.79947 28.51 6.96613 28.15H8.78613C8.6928 28.5167 8.5228 28.8467 8.27613 29.14C8.03613 29.4333 7.7328 29.6633 7.36613 29.83C6.99947 29.9967 6.58947 30.08 6.13613 30.08C5.58947 30.08 5.1028 29.9633 4.67613 29.73C4.24947 29.4967 3.91613 29.1633 3.67613 28.73C3.43613 28.2967 3.31613 27.79 3.31613 27.21C3.31613 26.63 3.4328 26.1233 3.66613 25.69C3.90613 25.2567 4.23947 24.9233 4.66613 24.69C5.0928 24.4567 5.5828 24.34 6.13613 24.34C6.67613 24.34 7.15613 24.4533 7.57613 24.68C7.99613 24.9067 8.3228 25.23 8.55613 25.65C8.79613 26.07 8.91613 26.56 8.91613 27.12ZM7.16613 26.67C7.16613 26.3767 7.06613 26.1433 6.86613 25.97C6.66613 25.7967 6.41613 25.71 6.11613 25.71C5.82947 25.71 5.58613 25.7933 5.38613 25.96C5.1928 26.1267 5.0728 26.3633 5.02613 26.67H7.16613ZM15.1682 25.24C15.1682 25.6467 15.0749 26.02 14.8882 26.36C14.7016 26.6933 14.4149 26.9633 14.0282 27.17C13.6416 27.3767 13.1616 27.48 12.5882 27.48H11.5282V30H9.81824V22.98H12.5882C13.1482 22.98 13.6216 23.0767 14.0082 23.27C14.3949 23.4633 14.6849 23.73 14.8782 24.07C15.0716 24.41 15.1682 24.8 15.1682 25.24ZM12.4582 26.12C12.7849 26.12 13.0282 26.0433 13.1882 25.89C13.3482 25.7367 13.4282 25.52 13.4282 25.24C13.4282 24.96 13.3482 24.7433 13.1882 24.59C13.0282 24.4367 12.7849 24.36 12.4582 24.36H11.5282V26.12H12.4582ZM21.5685 24.42V30H19.8585V29.24C19.6851 29.4867 19.4485 29.6867 19.1485 29.84C18.8551 29.9867 18.5285 30.06 18.1685 30.06C17.7418 30.06 17.3651 29.9667 17.0385 29.78C16.7118 29.5867 16.4585 29.31 16.2785 28.95C16.0985 28.59 16.0085 28.1667 16.0085 27.68V24.42H17.7085V27.45C17.7085 27.8233 17.8051 28.1133 17.9985 28.32C18.1918 28.5267 18.4518 28.63 18.7785 28.63C19.1118 28.63 19.3751 28.5267 19.5685 28.32C19.7618 28.1133 19.8585 27.8233 19.8585 27.45V24.42H21.5685ZM24.5068 25.21C24.6668 24.95 24.8968 24.74 25.1968 24.58C25.4968 24.42 25.8401 24.34 26.2268 24.34C26.6868 24.34 27.1034 24.4567 27.4768 24.69C27.8501 24.9233 28.1434 25.2567 28.3568 25.69C28.5768 26.1233 28.6868 26.6267 28.6868 27.2C28.6868 27.7733 28.5768 28.28 28.3568 28.72C28.1434 29.1533 27.8501 29.49 27.4768 29.73C27.1034 29.9633 26.6868 30.08 26.2268 30.08C25.8334 30.08 25.4901 30.0033 25.1968 29.85C24.9034 29.69 24.6734 29.48 24.5068 29.22V30H22.7968V22.6H24.5068V25.21ZM26.9468 27.2C26.9468 26.7733 26.8268 26.44 26.5868 26.2C26.3534 25.9533 26.0634 25.83 25.7168 25.83C25.3768 25.83 25.0868 25.9533 24.8468 26.2C24.6134 26.4467 24.4968 26.7833 24.4968 27.21C24.4968 27.6367 24.6134 27.9733 24.8468 28.22C25.0868 28.4667 25.3768 28.59 25.7168 28.59C26.0568 28.59 26.3468 28.4667 26.5868 28.22C26.8268 27.9667 26.9468 27.6267 26.9468 27.2Z" fill="white"/>
</g>
<defs>
<clipPath id="clip0_2001_3691">
<rect width="40" height="40" fill="white"/>
</clipPath>
</defs>
</svg>
