<svg width="16" height="16" viewBox="0 0 16 16" fill="none" xmlns="http://www.w3.org/2000/svg">
<path d="M3.73101 15.9967H0.722012C0.530607 15.9965 0.347117 15.9203 0.211773 15.785C0.0764295 15.6496 0.000276867 15.4661 1.23127e-05 15.2747V12.2647C-0.000950803 11.9803 0.0545975 11.6984 0.163433 11.4356C0.272268 11.1728 0.432223 10.9342 0.634012 10.7337L10.734 0.633728C11.14 0.227948 11.6905 0 12.2645 0C12.8385 0 13.389 0.227948 13.795 0.633728L15.367 2.19673C15.7724 2.60314 16 3.15372 16 3.72773C16 4.30173 15.7724 4.85231 15.367 5.25873L5.26701 15.3587C5.06602 15.5615 4.82673 15.7224 4.56304 15.8319C4.29936 15.9414 4.01654 15.9974 3.73101 15.9967ZM9.38201 4.02673L1.65501 11.7547C1.58789 11.8216 1.53469 11.9011 1.49847 11.9886C1.46226 12.0761 1.44375 12.17 1.44401 12.2647V14.5537H3.73101C3.82591 14.5541 3.91992 14.5356 4.00763 14.4994C4.09535 14.4632 4.17501 14.4099 4.24201 14.3427L11.969 6.61573L9.38201 4.02673ZM12.269 1.43973C12.1741 1.43944 12.0801 1.45794 11.9924 1.49415C11.9047 1.53036 11.8251 1.58358 11.758 1.65073L10.4 3.00673L12.99 5.59673L14.346 4.24073C14.4806 4.10511 14.5561 3.92179 14.5561 3.73073C14.5561 3.53966 14.4806 3.35634 14.346 3.22073L12.778 1.65073C12.7112 1.58356 12.6317 1.53033 12.5442 1.49411C12.4566 1.45789 12.3628 1.43941 12.268 1.43973H12.269Z" fill="black"/>
</svg>
