<svg width="26" height="25" viewBox="0 0 26 25" fill="none" xmlns="http://www.w3.org/2000/svg">
<path d="M22.124 4.92012L3.67003 4.92012C3.26218 4.92012 2.87102 5.08214 2.58262 5.37054C2.29422 5.65894 2.1322 6.05009 2.1322 6.45795L2.1322 18.7606C2.1322 19.1685 2.29422 19.5596 2.58262 19.848C2.87102 20.1364 3.26218 20.2984 3.67003 20.2984L22.124 20.2984C22.5319 20.2984 22.923 20.1364 23.2114 19.848C23.4998 19.5596 23.6619 19.1685 23.6619 18.7606L23.6619 6.45795C23.6619 6.05009 23.4998 5.65894 23.2114 5.37054C22.923 5.08214 22.5319 4.92012 22.124 4.92012ZM20.4324 6.45795L12.897 11.6712L5.36165 6.45795L20.4324 6.45795ZM3.67003 18.7606L3.67003 7.15767L12.4587 13.2398C12.5875 13.3291 12.7404 13.3769 12.897 13.3769C13.0537 13.3769 13.2066 13.3291 13.3353 13.2398L22.124 7.15767L22.124 18.7606L3.67003 18.7606Z" fill="#491B6D"/>
</svg>
