<svg width="18" height="14" viewBox="0 0 18 14" fill="none" xmlns="http://www.w3.org/2000/svg">
<path d="M1.51007 13.943C1.12261 13.941 0.750022 13.7936 0.466071 13.53C0.317179 13.3905 0.198881 13.2215 0.118666 13.0339C0.0384513 12.8463 -0.00193271 12.644 7.10768e-05 12.44V2.25C0.000864815 1.65351 0.238173 1.08167 0.659957 0.659886C1.08174 0.238102 1.65358 0.000793738 2.25007 0H15.7501C16.3466 0.000793738 16.9184 0.238102 17.3402 0.659886C17.762 1.08167 17.9993 1.65351 18.0001 2.25V9.75C17.9993 10.3465 17.762 10.9183 17.3402 11.3401C16.9184 11.7619 16.3466 11.9992 15.7501 12H4.06107L2.56107 13.5C2.42389 13.6397 2.26037 13.7508 2.07996 13.8268C1.89955 13.9029 1.70585 13.9423 1.51007 13.943ZM2.25007 1.5C2.05124 1.50026 1.86063 1.57937 1.72003 1.71996C1.57944 1.86056 1.50034 2.05117 1.50007 2.25V12.44L3.21907 10.72C3.36002 10.5793 3.55094 10.5002 3.75007 10.5H15.7501C15.9491 10.4997 16.1398 10.4205 16.2805 10.2797C16.4211 10.1389 16.5001 9.948 16.5001 9.749V2.25C16.4998 2.05117 16.4207 1.86056 16.2801 1.71996C16.1395 1.57937 15.9489 1.50026 15.7501 1.5H2.25007ZM12.0001 8.25H6.00007C5.80116 8.25 5.61039 8.17098 5.46974 8.03033C5.32909 7.88968 5.25007 7.69891 5.25007 7.5C5.25007 7.30109 5.32909 7.11032 5.46974 6.96967C5.61039 6.82902 5.80116 6.75 6.00007 6.75H12.0001C12.199 6.75 12.3897 6.82902 12.5304 6.96967C12.6711 7.11032 12.7501 7.30109 12.7501 7.5C12.7501 7.69891 12.6711 7.88968 12.5304 8.03033C12.3897 8.17098 12.199 8.25 12.0001 8.25ZM8.25107 5.25H6.00007C5.80116 5.25 5.61039 5.17098 5.46974 5.03033C5.32909 4.88968 5.25007 4.69891 5.25007 4.5C5.25007 4.30109 5.32909 4.11032 5.46974 3.96967C5.61039 3.82902 5.80116 3.75 6.00007 3.75H8.25007C8.44898 3.75 8.63975 3.82902 8.7804 3.96967C8.92105 4.11032 9.00007 4.30109 9.00007 4.5C9.00007 4.69891 8.92105 4.88968 8.7804 5.03033C8.63975 5.17098 8.44898 5.25 8.25007 5.25H8.25107Z" fill="black"/>
</svg>
