<svg width="18" height="16" viewBox="0 0 18 16" fill="none" xmlns="http://www.w3.org/2000/svg">
<path d="M8.997 15.8608C8.35681 15.8038 7.74736 15.5604 7.244 15.1608C6.57818 14.6918 5.9475 14.1747 5.357 13.6138C4.233 12.5718 2.897 11.1708 1.382 9.4478C0.452197 8.35816 -0.0394698 6.96186 0.00247911 5.53006C0.044428 4.09825 0.616999 2.73313 1.609 1.6998C2.55073 0.695049 3.84224 0.0901579 5.21699 0.00995774C6.59174 -0.0702424 7.94482 0.380369 8.997 1.2688C10.0493 0.380436 11.4023 -0.0704766 12.7771 0.00896382C14.152 0.0884042 15.444 0.692146 16.387 1.6958C17.3804 2.7294 17.9538 4.09555 17.9958 5.52852C18.0377 6.96149 17.5452 8.35884 16.614 9.4488C15.1 11.1708 13.763 12.5728 12.639 13.6148C12.0487 14.1746 11.4184 14.6907 10.753 15.1588C10.249 15.5597 9.63845 15.8038 8.997 15.8608ZM5.531 1.5998C4.999 1.5998 4.4726 1.70846 3.98408 1.9191C3.49555 2.12975 3.0552 2.43794 2.69 2.8248C1.97695 3.56146 1.56338 4.53701 1.52974 5.5617C1.49611 6.58638 1.8448 7.58695 2.508 8.3688C3.989 10.0538 5.289 11.4168 6.372 12.4188C6.90389 12.9262 7.47206 13.3941 8.072 13.8188C8.34287 14.0349 8.65908 14.187 8.997 14.2638C9.33465 14.1866 9.65051 14.0341 9.921 13.8178C10.5209 13.3931 11.0891 12.9252 11.621 12.4178C12.704 11.4178 14.004 10.0528 15.485 8.3678C16.148 7.58586 16.4965 6.58533 16.4629 5.56071C16.4293 4.53608 16.0158 3.56057 15.303 2.8238C14.6207 2.09632 13.6851 1.65857 12.6894 1.60088C11.6936 1.5432 10.7138 1.86998 9.952 2.5138L8.997 3.3148L8.04 2.5148C7.33659 1.92612 6.44923 1.60238 5.532 1.5998H5.531Z" fill="black"/>
</svg>
