<svg width="90" height="90" viewBox="0 0 90 90" fill="none" xmlns="http://www.w3.org/2000/svg">
<path d="M13.8889 31.1267V21.2749C13.8889 16.6111 17.6696 12.8304 22.3333 12.8304H31.716" stroke="#8E8E93" stroke-width="3.33333" stroke-linecap="round"/>
<path d="M13.8889 58.3368V68.1886C13.8889 72.8524 17.6696 76.6331 22.3333 76.6331H31.716" stroke="#8E8E93" stroke-width="3.33333" stroke-linecap="round"/>
<path d="M77.2222 31.1267V21.2749C77.2222 16.6111 73.4415 12.8304 68.7778 12.8304H59.395" stroke="#8E8E93" stroke-width="3.33333" stroke-linecap="round"/>
<path d="M77.2222 58.3368V68.1886C77.2222 72.8524 73.4415 76.6331 68.7778 76.6331H59.395" stroke="#8E8E93" stroke-width="3.33333" stroke-linecap="round"/>
<path d="M56.1111 58.1635L54.7012 58.7901C48.8787 61.3779 42.2324 61.3779 36.4099 58.7901L35 58.1635" stroke="#8E8E93" stroke-width="3.33333" stroke-linecap="round"/>
<path d="M46.9506 34.7068V46.2791C46.9506 48.0517 45.7104 49.5826 43.9763 49.9505L42.5062 50.2623" stroke="#8E8E93" stroke-width="3.33333" stroke-linecap="round"/>
<path d="M32.1852 34.7068L32.1852 40.2623" stroke="#8E8E93" stroke-width="3.33333" stroke-linecap="round"/>
<path d="M59.3951 34.7068L59.3951 40.2623" stroke="#8E8E93" stroke-width="3.33333" stroke-linecap="round"/>
</svg>
