<svg width="19" height="18" viewBox="0 0 19 18" fill="none" xmlns="http://www.w3.org/2000/svg">
<path d="M14.2508 17.0411H4.75083C4.12119 17.0403 3.51756 16.7898 3.07233 16.3446C2.6271 15.8994 2.37662 15.2957 2.37583 14.6661V6.57708L1.25783 7.39008C1.12295 7.48892 0.960054 7.54217 0.792831 7.54208C0.625468 7.54226 0.462352 7.48941 0.326889 7.39113C0.191426 7.29284 0.0905806 7.15417 0.0388235 6.99501C-0.0129336 6.83585 -0.0129414 6.66439 0.0388012 6.50522C0.0905438 6.34606 0.191377 6.20738 0.326831 6.10908L8.10083 0.454082C8.50684 0.15896 8.99589 0 9.49783 0C9.99977 0 10.4888 0.15896 10.8948 0.454082L18.6738 6.10908C18.758 6.17015 18.8294 6.24721 18.8837 6.33588C18.9381 6.42454 18.9745 6.52306 18.9907 6.62579C19.007 6.72852 19.0028 6.83345 18.9785 6.93456C18.9541 7.03568 18.9101 7.13101 18.8488 7.21508C18.7748 7.31568 18.6783 7.39756 18.567 7.45417C18.4557 7.51078 18.3327 7.54054 18.2078 7.54108C18.0406 7.54138 17.8776 7.48811 17.7428 7.38908L16.6248 6.57608V14.6641C16.6246 15.2939 16.3745 15.8979 15.9294 16.3435C15.4843 16.7892 14.8806 17.04 14.2508 17.0411ZM8.70883 8.33308H10.2918C10.9214 8.33361 11.525 8.58387 11.9703 9.02894C12.4155 9.474 12.666 10.0775 12.6668 10.7071V15.4571H14.2508C14.4608 15.4568 14.6621 15.3733 14.8106 15.2248C14.959 15.0763 15.0426 14.8751 15.0428 14.6651V5.42608L9.96683 1.73308C9.83137 1.6347 9.66825 1.58172 9.50083 1.58172C9.33341 1.58172 9.17029 1.6347 9.03483 1.73308L3.95883 5.42608V14.6651C3.9591 14.8751 4.04262 15.0763 4.19109 15.2248C4.33957 15.3733 4.54086 15.4568 4.75083 15.4571H6.33383V10.7071C6.33463 10.0775 6.58513 9.474 7.03039 9.02894C7.47565 8.58387 8.07928 8.33361 8.70883 8.33308ZM8.70883 9.91608C8.49895 9.91608 8.29766 9.99939 8.14916 10.1477C8.00066 10.296 7.9171 10.4972 7.91683 10.7071V15.4571H11.0838V10.7071C11.0836 10.4972 11 10.296 10.8515 10.1477C10.703 9.99939 10.5017 9.91608 10.2918 9.91608H8.70883Z" fill="black"/>
</svg>
