<svg width="20" height="20" viewBox="0 0 20 20" fill="none" xmlns="http://www.w3.org/2000/svg">
<g clip-path="url(#clip0_17_198)">
<path d="M12.2471 7.09941H13.785C13.9889 7.09941 14.1845 7.18042 14.3287 7.32462C14.4729 7.46882 14.5539 7.6644 14.5539 7.86833V17.0953C14.5539 17.2993 14.4729 17.4948 14.3287 17.639C14.1845 17.7832 13.9889 17.8642 13.785 17.8642H1.4823C1.27837 17.8642 1.08279 17.7832 0.938589 17.639C0.794389 17.4948 0.713379 17.2993 0.713379 17.0953V7.86833C0.713379 7.6644 0.794389 7.46882 0.938589 7.32462C1.08279 7.18042 1.27837 7.09941 1.4823 7.09941H3.02013V6.33049C3.02013 5.10692 3.50619 3.93346 4.37139 3.06826C5.23659 2.20306 6.41005 1.717 7.63362 1.717C8.8572 1.717 10.0307 2.20306 10.8959 3.06826C11.7611 3.93346 12.2471 5.10692 12.2471 6.33049V7.09941ZM2.25121 8.63724V16.3264H13.016V8.63724H2.25121ZM6.86471 11.7129H8.40254V13.2507H6.86471V11.7129ZM3.78904 11.7129H5.32688V13.2507H3.78904V11.7129ZM9.94037 11.7129H11.4782V13.2507H9.94037V11.7129ZM10.7093 7.09941V6.33049C10.7093 5.51478 10.3852 4.73247 9.80845 4.15567C9.23165 3.57887 8.44934 3.25483 7.63362 3.25483C6.81791 3.25483 6.0356 3.57887 5.4588 4.15567C4.882 4.73247 4.55796 5.51478 4.55796 6.33049V7.09941H10.7093Z" fill="#491B6D"/>
</g>
<defs>
<clipPath id="clip0_17_198">
<rect width="18.454" height="18.454" fill="white" transform="translate(0.713379 0.948059)"/>
</clipPath>
</defs>
</svg>
