<svg width="40" height="40" viewBox="0 0 40 40" fill="none" xmlns="http://www.w3.org/2000/svg">
<g clip-path="url(#clip0_2001_3769)">
<path d="M9 0.75H26.0439L34.25 8.28711V36C34.25 37.7949 32.7948 39.2499 31 39.25H9C7.20507 39.25 5.75 37.7949 5.75 36V4C5.75 2.20508 7.20508 0.75 9 0.75Z" stroke="#D0D5DD" stroke-width="1.5"/>
<mask id="path-2-inside-1_2001_3769" fill="white">
<path d="M25 1H33.5V9.5H26C25.4477 9.5 25 9.05229 25 8.5V1Z"/>
</mask>
<path d="M25 1H33.5H25ZM33.5 10.5H26C24.8954 10.5 24 9.60457 24 8.5H26H33.5V10.5ZM26 10.5C24.8954 10.5 24 9.60457 24 8.5V1H26V8.5V10.5ZM33.5 1V9.5V1Z" fill="#D0D5DD" mask="url(#path-2-inside-1_2001_3769)"/>
<rect x="1" y="20" width="30" height="13" rx="2" fill="#CB30E0"/>
<path d="M11.9284 22.98V30H10.2184V25.79L8.6484 30H7.2684L5.6884 25.78V30H3.9784V22.98H5.9984L7.9684 27.84L9.9184 22.98H11.9284ZM15.6981 30.08C15.1514 30.08 14.6581 29.9633 14.2181 29.73C13.7848 29.4967 13.4414 29.1633 13.1881 28.73C12.9414 28.2967 12.8181 27.79 12.8181 27.21C12.8181 26.6367 12.9448 26.1333 13.1981 25.7C13.4514 25.26 13.7981 24.9233 14.2381 24.69C14.6781 24.4567 15.1714 24.34 15.7181 24.34C16.2648 24.34 16.7581 24.4567 17.1981 24.69C17.6381 24.9233 17.9848 25.26 18.2381 25.7C18.4914 26.1333 18.6181 26.6367 18.6181 27.21C18.6181 27.7833 18.4881 28.29 18.2281 28.73C17.9748 29.1633 17.6248 29.4967 17.1781 29.73C16.7381 29.9633 16.2448 30.08 15.6981 30.08ZM15.6981 28.6C16.0248 28.6 16.3014 28.48 16.5281 28.24C16.7614 28 16.8781 27.6567 16.8781 27.21C16.8781 26.7633 16.7648 26.42 16.5381 26.18C16.3181 25.94 16.0448 25.82 15.7181 25.82C15.3848 25.82 15.1081 25.94 14.8881 26.18C14.6681 26.4133 14.5581 26.7567 14.5581 27.21C14.5581 27.6567 14.6648 28 14.8781 28.24C15.0981 28.48 15.3714 28.6 15.6981 28.6ZM21.2353 25.21C21.3953 24.95 21.6253 24.74 21.9253 24.58C22.2253 24.42 22.5686 24.34 22.9553 24.34C23.4153 24.34 23.8319 24.4567 24.2053 24.69C24.5786 24.9233 24.8719 25.2567 25.0853 25.69C25.3053 26.1233 25.4153 26.6267 25.4153 27.2C25.4153 27.7733 25.3053 28.28 25.0853 28.72C24.8719 29.1533 24.5786 29.49 24.2053 29.73C23.8319 29.9633 23.4153 30.08 22.9553 30.08C22.5619 30.08 22.2186 30.0033 21.9253 29.85C21.6319 29.69 21.4019 29.48 21.2353 29.22V30H19.5253V22.6H21.2353V25.21ZM23.6753 27.2C23.6753 26.7733 23.5553 26.44 23.3153 26.2C23.0819 25.9533 22.7919 25.83 22.4453 25.83C22.1053 25.83 21.8153 25.9533 21.5753 26.2C21.3419 26.4467 21.2253 26.7833 21.2253 27.21C21.2253 27.6367 21.3419 27.9733 21.5753 28.22C21.8153 28.4667 22.1053 28.59 22.4453 28.59C22.7853 28.59 23.0753 28.4667 23.3153 28.22C23.5553 27.9667 23.6753 27.6267 23.6753 27.2ZM27.1724 23.84C26.8724 23.84 26.6257 23.7533 26.4324 23.58C26.2457 23.4 26.1524 23.18 26.1524 22.92C26.1524 22.6533 26.2457 22.4333 26.4324 22.26C26.6257 22.08 26.8724 21.99 27.1724 21.99C27.4657 21.99 27.7057 22.08 27.8924 22.26C28.0857 22.4333 28.1824 22.6533 28.1824 22.92C28.1824 23.18 28.0857 23.4 27.8924 23.58C27.7057 23.7533 27.4657 23.84 27.1724 23.84ZM28.0224 24.42V30H26.3124V24.42H28.0224Z" fill="white"/>
</g>
<defs>
<clipPath id="clip0_2001_3769">
<rect width="40" height="40" fill="white"/>
</clipPath>
</defs>
</svg>
