<svg width="500" height="615" viewBox="0 0 500 615" fill="none" xmlns="http://www.w3.org/2000/svg">
<path d="M66 9H343.067C358.052 9 372.434 14.9008 383.101 25.4248L474.033 115.141C484.889 125.851 491 140.466 491 155.717V549C491 580.48 465.48 606 434 606H66C34.5198 606 9 580.48 9 549V66C9.00001 34.5198 34.5198 9 66 9Z" fill="white" stroke="#FFA19C" stroke-width="18"/>
<path d="M219.583 137.917C220.905 113.959 250.416 111.042 258.125 137.917C264.291 159.417 254.375 193.959 248.061 218.623C254.375 233.125 274.999 260 287.291 271.875C328.332 265.625 351.457 266.322 366.666 273.542C387.291 283.334 382.916 307.424 362.916 309.375C345.833 311.042 320.624 309.374 284.791 279.583C275.485 280.833 247.749 286.208 214.583 297.708C201.874 318.125 184.166 346.049 169.166 358.125C144.583 377.916 126.041 371.458 120.833 360.625C113.75 341.458 142.499 323.541 194.791 297.708C203.055 281.319 222.124 240.333 232.291 207.5C227.846 196.875 217.916 168.125 219.583 137.917ZM187.708 308.958C116.458 339.704 119.791 360.417 133.125 362.5C146.458 364.583 162.916 347.708 187.708 308.958ZM362.083 290.625C361.249 271.042 331.249 271.041 292.083 277.708C337.708 310.208 362.083 304.375 362.083 290.625ZM244.583 226.458C233.583 258.958 222.916 281.806 218.958 289.167C248.624 280 272.152 275.069 280.208 273.75C263.708 255.083 249.583 234.444 244.583 226.458ZM236.041 197.083C253.332 141.875 247.5 124.375 234.375 126.25C220.625 128.542 222.499 167.708 236.041 197.083Z" fill="#FF4A42"/>
<path d="M66 9H343.067C358.052 9 372.434 14.9008 383.101 25.4248L474.033 115.141C484.889 125.851 491 140.466 491 155.717V549C491 580.48 465.48 606 434 606H66C34.5198 606 9 580.48 9 549V66C9 34.5198 34.5198 9 66 9Z" stroke="#FF4A42" stroke-width="18"/>
<mask id="path-4-outside-1_1_315" maskUnits="userSpaceOnUse" x="138" y="430" width="230" height="95" fill="black">
<rect fill="white" x="138" y="430" width="230" height="95"/>
<path d="M174.59 490.294H150.786V476.583H174.59C178.483 476.583 181.636 475.948 184.048 474.679C186.502 473.367 188.301 471.59 189.443 469.347C190.586 467.062 191.157 464.459 191.157 461.539C191.157 458.704 190.586 456.059 189.443 453.604C188.301 451.15 186.502 449.161 184.048 447.638C181.636 446.114 178.483 445.353 174.59 445.353H156.499V524H139.043V431.578H174.59C181.784 431.578 187.92 432.869 192.998 435.45C198.118 437.989 202.012 441.523 204.678 446.051C207.386 450.536 208.74 455.657 208.74 461.412C208.74 467.379 207.386 472.521 204.678 476.837C202.012 481.153 198.118 484.475 192.998 486.803C187.92 489.13 181.784 490.294 174.59 490.294ZM250.063 524H230.132L230.259 510.289H250.063C255.438 510.289 259.945 509.104 263.584 506.734C267.223 504.322 269.974 500.873 271.836 496.388C273.698 491.86 274.629 486.443 274.629 480.138V475.377C274.629 470.51 274.1 466.215 273.042 462.491C271.984 458.767 270.418 455.636 268.345 453.097C266.313 450.558 263.796 448.632 260.791 447.32C257.786 446.008 254.338 445.353 250.444 445.353H229.751V431.578H250.444C256.623 431.578 262.251 432.615 267.329 434.688C272.45 436.762 276.872 439.745 280.596 443.639C284.362 447.49 287.24 452.102 289.229 457.477C291.26 462.851 292.275 468.86 292.275 475.504V480.138C292.275 486.739 291.26 492.748 289.229 498.165C287.24 503.539 284.362 508.152 280.596 512.003C276.872 515.854 272.428 518.816 267.266 520.89C262.103 522.963 256.369 524 250.063 524ZM239.907 431.578V524H222.451V431.578H239.907ZM324.585 431.578V524H307.129V431.578H324.585ZM361.846 471.505V485.279H320.015V471.505H361.846ZM366.733 431.578V445.353H320.015V431.578H366.733Z"/>
</mask>
<path d="M174.59 490.294H150.786V476.583H174.59C178.483 476.583 181.636 475.948 184.048 474.679C186.502 473.367 188.301 471.59 189.443 469.347C190.586 467.062 191.157 464.459 191.157 461.539C191.157 458.704 190.586 456.059 189.443 453.604C188.301 451.15 186.502 449.161 184.048 447.638C181.636 446.114 178.483 445.353 174.59 445.353H156.499V524H139.043V431.578H174.59C181.784 431.578 187.92 432.869 192.998 435.45C198.118 437.989 202.012 441.523 204.678 446.051C207.386 450.536 208.74 455.657 208.74 461.412C208.74 467.379 207.386 472.521 204.678 476.837C202.012 481.153 198.118 484.475 192.998 486.803C187.92 489.13 181.784 490.294 174.59 490.294ZM250.063 524H230.132L230.259 510.289H250.063C255.438 510.289 259.945 509.104 263.584 506.734C267.223 504.322 269.974 500.873 271.836 496.388C273.698 491.86 274.629 486.443 274.629 480.138V475.377C274.629 470.51 274.1 466.215 273.042 462.491C271.984 458.767 270.418 455.636 268.345 453.097C266.313 450.558 263.796 448.632 260.791 447.32C257.786 446.008 254.338 445.353 250.444 445.353H229.751V431.578H250.444C256.623 431.578 262.251 432.615 267.329 434.688C272.45 436.762 276.872 439.745 280.596 443.639C284.362 447.49 287.24 452.102 289.229 457.477C291.26 462.851 292.275 468.86 292.275 475.504V480.138C292.275 486.739 291.26 492.748 289.229 498.165C287.24 503.539 284.362 508.152 280.596 512.003C276.872 515.854 272.428 518.816 267.266 520.89C262.103 522.963 256.369 524 250.063 524ZM239.907 431.578V524H222.451V431.578H239.907ZM324.585 431.578V524H307.129V431.578H324.585ZM361.846 471.505V485.279H320.015V471.505H361.846ZM366.733 431.578V445.353H320.015V431.578H366.733Z" fill="#363636"/>
<path d="M150.786 490.294H149.786V491.294H150.786V490.294ZM150.786 476.583V475.583H149.786V476.583H150.786ZM184.048 474.679L184.514 475.564L184.519 475.561L184.048 474.679ZM189.443 469.347L190.334 469.801L190.338 469.794L189.443 469.347ZM184.048 447.638L183.514 448.483L183.52 448.487L184.048 447.638ZM156.499 445.353V444.353H155.499V445.353H156.499ZM156.499 524V525H157.499V524H156.499ZM139.043 524H138.043V525H139.043V524ZM139.043 431.578V430.578H138.043V431.578H139.043ZM192.998 435.45L192.545 436.342L192.554 436.346L192.998 435.45ZM204.678 446.051L203.816 446.558L203.822 446.568L204.678 446.051ZM204.678 476.837L203.831 476.305L203.827 476.311L204.678 476.837ZM192.998 486.803L192.584 485.892L192.581 485.894L192.998 486.803ZM174.59 490.294V489.294H150.786V490.294V491.294H174.59V490.294ZM150.786 490.294H151.786V476.583H150.786H149.786V490.294H150.786ZM150.786 476.583V477.583H174.59V476.583V475.583H150.786V476.583ZM174.59 476.583V477.583C178.58 477.583 181.91 476.934 184.514 475.564L184.048 474.679L183.582 473.794C181.362 474.962 178.386 475.583 174.59 475.583V476.583ZM184.048 474.679L184.519 475.561C187.134 474.163 189.089 472.245 190.334 469.801L189.443 469.347L188.552 468.893C187.512 470.934 185.87 472.571 183.576 473.797L184.048 474.679ZM189.443 469.347L190.338 469.794C191.559 467.351 192.157 464.592 192.157 461.539H191.157H190.157C190.157 464.326 189.613 466.772 188.549 468.899L189.443 469.347ZM191.157 461.539H192.157C192.157 458.565 191.557 455.775 190.35 453.182L189.443 453.604L188.537 454.027C189.615 456.343 190.157 458.843 190.157 461.539H191.157ZM189.443 453.604L190.35 453.182C189.12 450.54 187.183 448.407 184.575 446.788L184.048 447.638L183.52 448.487C185.821 449.915 187.482 451.76 188.537 454.027L189.443 453.604ZM184.048 447.638L184.582 446.792C181.962 445.137 178.605 444.353 174.59 444.353V445.353V446.353C178.361 446.353 181.31 447.091 183.514 448.483L184.048 447.638ZM174.59 445.353V444.353H156.499V445.353V446.353H174.59V445.353ZM156.499 445.353H155.499V524H156.499H157.499V445.353H156.499ZM156.499 524V523H139.043V524V525H156.499V524ZM139.043 524H140.043V431.578H139.043H138.043V524H139.043ZM139.043 431.578V432.578H174.59V431.578V430.578H139.043V431.578ZM174.59 431.578V432.578C181.667 432.578 187.639 433.848 192.545 436.342L192.998 435.45L193.451 434.559C188.201 431.89 181.901 430.578 174.59 430.578V431.578ZM192.998 435.45L192.554 436.346C197.516 438.807 201.257 442.212 203.816 446.558L204.678 446.051L205.539 445.543C202.766 440.833 198.721 437.172 193.442 434.554L192.998 435.45ZM204.678 446.051L203.822 446.568C206.427 450.882 207.74 455.821 207.74 461.412H208.74H209.74C209.74 455.493 208.345 450.191 205.534 445.534L204.678 446.051ZM208.74 461.412H207.74C207.74 467.224 206.423 472.174 203.831 476.305L204.678 476.837L205.525 477.368C208.349 472.867 209.74 467.534 209.74 461.412H208.74ZM204.678 476.837L203.827 476.311C201.276 480.441 197.544 483.638 192.584 485.892L192.998 486.803L193.412 487.713C198.693 485.313 202.747 481.866 205.529 477.362L204.678 476.837ZM192.998 486.803L192.581 485.894C187.666 488.147 181.68 489.294 174.59 489.294V490.294V491.294C181.888 491.294 188.174 490.114 193.415 487.712L192.998 486.803ZM230.132 524L229.132 523.991L229.123 525H230.132V524ZM230.259 510.289V509.289H229.268L229.259 510.28L230.259 510.289ZM263.584 506.734L264.13 507.572L264.136 507.568L263.584 506.734ZM271.836 496.388L272.76 496.771L272.761 496.768L271.836 496.388ZM273.042 462.491L272.08 462.764L273.042 462.491ZM268.345 453.097L267.564 453.721L267.57 453.729L268.345 453.097ZM229.751 445.353H228.751V446.353H229.751V445.353ZM229.751 431.578V430.578H228.751V431.578H229.751ZM267.329 434.688L266.951 435.614L266.954 435.615L267.329 434.688ZM280.596 443.639L279.873 444.33L279.881 444.338L280.596 443.639ZM289.229 457.477L288.291 457.824L288.293 457.83L289.229 457.477ZM289.229 498.165L288.292 497.814L288.291 497.818L289.229 498.165ZM280.596 512.003L279.881 511.304L279.877 511.308L280.596 512.003ZM239.907 431.578H240.907V430.578H239.907V431.578ZM239.907 524V525H240.907V524H239.907ZM222.451 524H221.451V525H222.451V524ZM222.451 431.578V430.578H221.451V431.578H222.451ZM250.063 524V523H230.132V524V525H250.063V524ZM230.132 524L231.132 524.009L231.259 510.298L230.259 510.289L229.259 510.28L229.132 523.991L230.132 524ZM230.259 510.289V511.289H250.063V510.289V509.289H230.259V510.289ZM250.063 510.289V511.289C255.585 511.289 260.293 510.071 264.13 507.572L263.584 506.734L263.038 505.896C259.596 508.138 255.29 509.289 250.063 509.289V510.289ZM263.584 506.734L264.136 507.568C267.96 505.034 270.83 501.419 272.76 496.771L271.836 496.388L270.912 496.004C269.118 500.328 266.487 503.611 263.032 505.901L263.584 506.734ZM271.836 496.388L272.761 496.768C274.684 492.09 275.629 486.538 275.629 480.138H274.629H273.629C273.629 486.348 272.711 491.629 270.911 496.007L271.836 496.388ZM274.629 480.138H275.629V475.377H274.629H273.629V480.138H274.629ZM274.629 475.377H275.629C275.629 470.441 275.093 466.05 274.004 462.218L273.042 462.491L272.08 462.764C273.107 466.38 273.629 470.58 273.629 475.377H274.629ZM273.042 462.491L274.004 462.218C272.915 458.386 271.293 455.126 269.119 452.464L268.345 453.097L267.57 453.729C269.543 456.145 271.053 459.148 272.08 462.764L273.042 462.491ZM268.345 453.097L269.126 452.472C266.992 449.805 264.343 447.78 261.191 446.404L260.791 447.32L260.391 448.237C263.248 449.484 265.635 451.31 267.564 453.721L268.345 453.097ZM260.791 447.32L261.191 446.404C258.039 445.028 254.45 444.353 250.444 444.353V445.353V446.353C254.225 446.353 257.534 446.989 260.391 448.237L260.791 447.32ZM250.444 445.353V444.353H229.751V445.353V446.353H250.444V445.353ZM229.751 445.353H230.751V431.578H229.751H228.751V445.353H229.751ZM229.751 431.578V432.578H250.444V431.578V430.578H229.751V431.578ZM250.444 431.578V432.578C256.509 432.578 262.007 433.596 266.951 435.614L267.329 434.688L267.707 433.763C262.495 431.634 256.736 430.578 250.444 430.578V431.578ZM267.329 434.688L266.954 435.615C271.946 437.637 276.249 440.542 279.873 444.33L280.596 443.639L281.318 442.947C277.494 438.949 272.953 435.887 267.704 433.762L267.329 434.688ZM280.596 443.639L279.881 444.338C283.543 448.082 286.347 452.572 288.291 457.824L289.229 457.477L290.166 457.129C288.132 451.632 285.181 446.897 281.311 442.939L280.596 443.639ZM289.229 457.477L288.293 457.83C290.276 463.075 291.275 468.962 291.275 475.504H292.275H293.275C293.275 468.758 292.244 462.627 290.164 457.123L289.229 457.477ZM292.275 475.504H291.275V480.138H292.275H293.275V475.504H292.275ZM292.275 480.138H291.275C291.275 486.636 290.276 492.524 288.292 497.814L289.229 498.165L290.165 498.516C292.244 492.973 293.275 486.842 293.275 480.138H292.275ZM289.229 498.165L288.291 497.818C286.347 503.069 283.543 507.56 279.881 511.304L280.596 512.003L281.311 512.702C285.181 508.744 288.132 504.01 290.166 498.512L289.229 498.165ZM280.596 512.003L279.877 511.308C276.254 515.054 271.93 517.938 266.893 519.962L267.266 520.89L267.638 521.818C272.926 519.694 277.489 516.654 281.315 512.698L280.596 512.003ZM267.266 520.89L266.893 519.962C261.863 521.982 256.258 523 250.063 523V524V525C256.48 525 262.342 523.945 267.638 521.818L267.266 520.89ZM239.907 431.578H238.907V524H239.907H240.907V431.578H239.907ZM239.907 524V523H222.451V524V525H239.907V524ZM222.451 524H223.451V431.578H222.451H221.451V524H222.451ZM222.451 431.578V432.578H239.907V431.578V430.578H222.451V431.578ZM324.585 431.578H325.585V430.578H324.585V431.578ZM324.585 524V525H325.585V524H324.585ZM307.129 524H306.129V525H307.129V524ZM307.129 431.578V430.578H306.129V431.578H307.129ZM361.846 471.505H362.846V470.505H361.846V471.505ZM361.846 485.279V486.279H362.846V485.279H361.846ZM320.015 485.279H319.015V486.279H320.015V485.279ZM320.015 471.505V470.505H319.015V471.505H320.015ZM366.733 431.578H367.733V430.578H366.733V431.578ZM366.733 445.353V446.353H367.733V445.353H366.733ZM320.015 445.353H319.015V446.353H320.015V445.353ZM320.015 431.578V430.578H319.015V431.578H320.015ZM324.585 431.578H323.585V524H324.585H325.585V431.578H324.585ZM324.585 524V523H307.129V524V525H324.585V524ZM307.129 524H308.129V431.578H307.129H306.129V524H307.129ZM307.129 431.578V432.578H324.585V431.578V430.578H307.129V431.578ZM361.846 471.505H360.846V485.279H361.846H362.846V471.505H361.846ZM361.846 485.279V484.279H320.015V485.279V486.279H361.846V485.279ZM320.015 485.279H321.015V471.505H320.015H319.015V485.279H320.015ZM320.015 471.505V472.505H361.846V471.505V470.505H320.015V471.505ZM366.733 431.578H365.733V445.353H366.733H367.733V431.578H366.733ZM366.733 445.353V444.353H320.015V445.353V446.353H366.733V445.353ZM320.015 445.353H321.015V431.578H320.015H319.015V445.353H320.015ZM320.015 431.578V432.578H366.733V431.578V430.578H320.015V431.578Z" fill="#FFA19C" mask="url(#path-4-outside-1_1_315)"/>
</svg>
