<svg width="15" height="18" viewBox="0 0 15 18" fill="none" xmlns="http://www.w3.org/2000/svg">
<path d="M10.658 18H4.343C3.78927 18.0007 3.25477 17.7969 2.84196 17.4279C2.42915 17.0588 2.16709 16.5504 2.106 16L0.829 4.5H0.75C0.551088 4.5 0.360322 4.42098 0.21967 4.28033C0.0790176 4.13968 0 3.94891 0 3.75C0 3.55109 0.0790176 3.36032 0.21967 3.21967C0.360322 3.07902 0.551088 3 0.75 3H4.5V2.25C4.50079 1.65351 4.7381 1.08167 5.15989 0.659886C5.58167 0.238102 6.15351 0.000793738 6.75 0L8.25 0C8.84649 0.000793738 9.41833 0.238102 9.84011 0.659886C10.2619 1.08167 10.4992 1.65351 10.5 2.25V3H14.25C14.4489 3 14.6397 3.07902 14.7803 3.21967C14.921 3.36032 15 3.55109 15 3.75C15 3.94891 14.921 4.13968 14.7803 4.28033C14.6397 4.42098 14.4489 4.5 14.25 4.5H14.172L12.893 16C12.8324 16.5502 12.5707 17.0586 12.1582 17.4277C11.7458 17.7968 11.2115 18.0006 10.658 18ZM2.337 4.5L3.6 15.833C3.6202 16.0164 3.70741 16.1859 3.84489 16.309C3.98238 16.4321 4.16046 16.5001 4.345 16.5H10.66C10.8445 16.5001 11.0226 16.4321 11.1601 16.309C11.2976 16.1859 11.3848 16.0164 11.405 15.833L12.662 4.5H2.337ZM6.75 1.5C6.55117 1.50026 6.36056 1.57937 6.21996 1.71996C6.07937 1.86056 6.00026 2.05117 6 2.25V3H9V2.25C8.99974 2.05117 8.92063 1.86056 8.78004 1.71996C8.63944 1.57937 8.44883 1.50026 8.25 1.5H6.75ZM9 14.25C8.80117 14.2497 8.61056 14.1706 8.46996 14.03C8.32937 13.8894 8.25026 13.6988 8.25 13.5V7.5C8.25 7.30109 8.32902 7.11032 8.46967 6.96967C8.61032 6.82902 8.80109 6.75 9 6.75C9.19891 6.75 9.38968 6.82902 9.53033 6.96967C9.67098 7.11032 9.75 7.30109 9.75 7.5V13.5C9.74974 13.6988 9.67063 13.8894 9.53004 14.03C9.38944 14.1706 9.19883 14.2497 9 14.25ZM6 14.25C5.801 14.25 5.61013 14.171 5.46932 14.0304C5.32851 13.8898 5.24927 13.699 5.249 13.5V7.5C5.249 7.30109 5.32802 7.11032 5.46867 6.96967C5.60932 6.82902 5.80009 6.75 5.999 6.75C6.19791 6.75 6.38868 6.82902 6.52933 6.96967C6.66998 7.11032 6.749 7.30109 6.749 7.5V13.5C6.74874 13.6987 6.66977 13.8891 6.52939 14.0297C6.38901 14.1703 6.19866 14.2495 6 14.25Z" fill="black"/>
</svg>
