<svg width="50" height="50" viewBox="0 0 50 50" fill="none" xmlns="http://www.w3.org/2000/svg">
<path d="M39.5833 33.3334V29.1667C39.5833 23.2742 39.5833 20.3279 37.7527 18.4973C35.9221 16.6667 32.9758 16.6667 27.0833 16.6667H22.9167C17.0241 16.6667 14.0778 16.6667 12.2472 18.4973C10.4167 20.3279 10.4167 23.2742 10.4167 29.1667V33.3334C10.4167 39.2259 10.4167 42.1721 12.2472 44.0027C14.0778 45.8334 17.0241 45.8334 22.9167 45.8334H27.0833C32.9758 45.8334 35.9221 45.8334 37.7527 44.0027C39.5833 42.1721 39.5833 39.2259 39.5833 33.3334Z" stroke="#141B34" stroke-width="3.125" stroke-linejoin="round"/>
<path d="M39.5833 37.5C42.5296 37.5 44.0027 37.5 44.9181 36.5848C45.8333 35.6694 45.8333 34.1962 45.8333 31.25C45.8333 28.3037 45.8333 26.8306 44.9181 25.9152C44.0027 25 42.5296 25 39.5833 25" stroke="#141B34" stroke-width="3.125" stroke-linejoin="round"/>
<path d="M10.4167 37.5C7.47039 37.5 5.99724 37.5 5.08195 36.5848C4.16666 35.6694 4.16666 34.1962 4.16666 31.25C4.16666 28.3037 4.16666 26.8306 5.08195 25.9152C5.99724 25 7.47039 25 10.4167 25" stroke="#141B34" stroke-width="3.125" stroke-linejoin="round"/>
<path d="M28.125 7.29169C28.125 9.01758 26.7258 10.4167 25 10.4167C23.2742 10.4167 21.875 9.01758 21.875 7.29169C21.875 5.56579 23.2742 4.16669 25 4.16669C26.7258 4.16669 28.125 5.56579 28.125 7.29169Z" stroke="#141B34" stroke-width="3.125"/>
<path d="M25 10.4167V16.6667" stroke="#141B34" stroke-width="3.125" stroke-linecap="round" stroke-linejoin="round"/>
<path d="M18.75 27.0833V29.1666" stroke="#141B34" stroke-width="3.125" stroke-linecap="round" stroke-linejoin="round"/>
<path d="M31.25 27.0833V29.1666" stroke="#141B34" stroke-width="3.125" stroke-linecap="round" stroke-linejoin="round"/>
<path d="M20.8333 36.4583C20.8333 36.4583 22.2223 37.5 25 37.5C27.7777 37.5 29.1667 36.4583 29.1667 36.4583" stroke="#141B34" stroke-width="3.125" stroke-linecap="round"/>
</svg>
