<svg width="16" height="16" viewBox="0 0 16 16" fill="none" xmlns="http://www.w3.org/2000/svg">
<path d="M13.819 16H2.182C1.60363 15.9995 1.04909 15.7696 0.640031 15.3607C0.23097 14.9518 0.000794218 14.3974 0 13.819L0 9.365L1.928 1.652C2.0459 1.1797 2.3185 0.760442 2.70234 0.461049C3.08619 0.161656 3.5592 -0.00064722 4.046 1.93976e-06H11.955C12.4418 -0.00064722 12.9148 0.161656 13.2987 0.461049C13.6825 0.760442 13.9551 1.1797 14.073 1.652L16 9.365V13.818C15.9995 14.3964 15.7695 14.9509 15.3607 15.36C14.9518 15.769 14.3974 15.9992 13.819 16ZM1.454 10.182V13.819C1.45426 14.0117 1.53094 14.1965 1.66723 14.3328C1.80351 14.4691 1.98827 14.5457 2.181 14.546H13.819C14.0117 14.5457 14.1965 14.4691 14.3328 14.3328C14.4691 14.1965 14.5457 14.0117 14.546 13.819V10.182H10.911L10.872 10.209C10.8156 10.2647 10.7737 10.3334 10.75 10.409C10.5521 10.9808 10.1809 11.4767 9.68802 11.8277C9.19514 12.1787 8.60509 12.3674 8 12.3674C7.39491 12.3674 6.80486 12.1787 6.31198 11.8277C5.81909 11.4767 5.44788 10.9808 5.25 10.409C5.22596 10.3335 5.18411 10.2649 5.128 10.209L5.088 10.182H1.454ZM4.046 1.454C3.88353 1.45364 3.72563 1.50771 3.59748 1.60758C3.46933 1.70745 3.37833 1.84737 3.339 2.005L1.659 8.727H5.091C5.4395 8.74347 5.77428 8.86778 6.04907 9.08275C6.32387 9.29771 6.52512 9.59272 6.625 9.927C6.72441 10.2124 6.9102 10.4599 7.15658 10.635C7.40297 10.8101 7.69774 10.9041 8 10.9041C8.30226 10.9041 8.59703 10.8101 8.84342 10.635C9.0898 10.4599 9.27559 10.2124 9.375 9.927C9.47462 9.59257 9.6758 9.2974 9.95065 9.08239C10.2255 8.86738 10.5604 8.74318 10.909 8.727H14.342L12.662 2.005C12.6224 1.84754 12.5313 1.70782 12.4032 1.608C12.2751 1.50819 12.1174 1.45399 11.955 1.454H4.046ZM11.637 7.272H4.363C4.17019 7.272 3.98527 7.19541 3.84893 7.05907C3.71259 6.92273 3.636 6.73781 3.636 6.545C3.636 6.35219 3.71259 6.16727 3.84893 6.03094C3.98527 5.8946 4.17019 5.818 4.363 5.818H11.636C11.8288 5.818 12.0137 5.8946 12.1501 6.03094C12.2864 6.16727 12.363 6.35219 12.363 6.545C12.363 6.73781 12.2864 6.92273 12.1501 7.05907C12.0137 7.19541 11.8288 7.272 11.636 7.272H11.637ZM10.91 4.362H5.091C4.99553 4.362 4.90099 4.3432 4.81279 4.30666C4.72459 4.27013 4.64444 4.21658 4.57693 4.14907C4.50943 4.08156 4.45587 4.00142 4.41934 3.91321C4.3828 3.82501 4.364 3.73047 4.364 3.635C4.364 3.53953 4.3828 3.44499 4.41934 3.35679C4.45587 3.26859 4.50943 3.18844 4.57693 3.12094C4.64444 3.05343 4.72459 2.99988 4.81279 2.96334C4.90099 2.92681 4.99553 2.908 5.091 2.908H10.909C11.0045 2.908 11.099 2.92681 11.1872 2.96334C11.2754 2.99988 11.3556 3.05343 11.4231 3.12094C11.4906 3.18844 11.5441 3.26859 11.5807 3.35679C11.6172 3.44499 11.636 3.53953 11.636 3.635C11.636 3.73047 11.6172 3.82501 11.5807 3.91321C11.5441 4.00142 11.4906 4.08156 11.4231 4.14907C11.3556 4.21658 11.2754 4.27013 11.1872 4.30666C11.099 4.3432 11.0045 4.362 10.909 4.362H10.91Z" fill="black"/>
</svg>
