<svg width="17" height="17" viewBox="0 0 17 17" fill="none" xmlns="http://www.w3.org/2000/svg">
<path d="M13.9098 17.0024C13.4489 17.0023 12.9938 16.8992 12.5779 16.7005C12.162 16.5019 11.7957 16.2128 11.5059 15.8544C11.2162 15.496 11.0102 15.0773 10.903 14.629C10.7959 14.1807 10.7904 13.7141 10.8868 13.2634L5.42283 10.5314C5.00954 11.0064 4.46107 11.3438 3.85078 11.4986C3.24049 11.6533 2.59749 11.618 2.00781 11.3974C1.41813 11.1767 0.909889 10.7813 0.551078 10.2639C0.192267 9.74659 0 9.13199 0 8.50239C0 7.87278 0.192267 7.25819 0.551078 6.74083C0.909889 6.22348 1.41813 5.82803 2.00781 5.60739C2.59749 5.38676 3.24049 5.35146 3.85078 5.50622C4.46107 5.66098 5.00954 5.99842 5.42283 6.47339L10.8868 3.74139C10.729 3.00524 10.8451 2.2368 11.2134 1.58013C11.5816 0.923462 12.1767 0.423655 12.8872 0.174411C13.5976 -0.0748334 14.3745 -0.0564006 15.0723 0.226254C15.7701 0.508908 16.3409 1.03637 16.6776 1.70977C17.0143 2.38316 17.0938 3.15624 16.9012 3.88408C16.7087 4.61191 16.2573 5.24453 15.6316 5.66332C15.006 6.08211 14.249 6.25832 13.5028 6.15893C12.7565 6.05953 12.0721 5.69134 11.5778 5.12339L6.11383 7.85539C6.20571 8.28385 6.20571 8.72692 6.11383 9.15539L11.5778 11.8874C11.9169 11.496 12.3489 11.1961 12.8341 11.0152C13.3193 10.8342 13.8422 10.7781 14.3548 10.852C14.8673 10.9258 15.3531 11.1272 15.7675 11.4378C16.1819 11.7483 16.5117 12.158 16.7265 12.6291C16.9413 13.1003 17.0343 13.6179 16.9969 14.1344C16.9596 14.6509 16.7931 15.1497 16.5127 15.5851C16.2323 16.0205 15.847 16.3784 15.3922 16.626C14.9374 16.8737 14.4277 17.0031 13.9098 17.0024ZM13.9098 12.3654C13.604 12.3652 13.305 12.4557 13.0506 12.6255C12.7963 12.7952 12.598 13.0366 12.4808 13.3191C12.3636 13.6015 12.3329 13.9124 12.3924 14.2124C12.452 14.5123 12.5991 14.7879 12.8153 15.0042C13.0315 15.2205 13.3069 15.3679 13.6069 15.4276C13.9068 15.4873 14.2177 15.4568 14.5002 15.3398C14.7828 15.2228 15.0243 15.0247 15.1942 14.7704C15.3641 14.5161 15.4548 14.2172 15.4548 13.9114C15.4558 13.7082 15.4164 13.5068 15.3391 13.3189C15.2618 13.131 15.1481 12.9602 15.0044 12.8165C14.8608 12.6728 14.6901 12.5589 14.5022 12.4815C14.3144 12.404 14.113 12.3646 13.9098 12.3654ZM3.09083 6.95639C2.78506 6.95639 2.48616 7.04706 2.23192 7.21694C1.97768 7.38681 1.77953 7.62826 1.66251 7.91076C1.5455 8.19325 1.51489 8.5041 1.57454 8.804C1.63419 9.10389 1.78143 9.37936 1.99764 9.59558C2.21386 9.81179 2.48933 9.95903 2.78922 10.0187C3.08912 10.0783 3.39997 10.0477 3.68246 9.93071C3.96496 9.81369 4.20641 9.61554 4.37628 9.3613C4.54616 9.10706 4.63683 8.80816 4.63683 8.50239C4.63683 8.09236 4.47395 7.69913 4.18402 7.4092C3.89409 7.11927 3.50086 6.95639 3.09083 6.95639ZM13.9098 1.54739C13.5001 1.54792 13.1074 1.71083 12.8176 2.00043C12.5278 2.29003 12.3646 2.6827 12.3638 3.09239C12.3637 3.2955 12.4036 3.49664 12.4812 3.68432C12.5589 3.87201 12.6727 4.04256 12.8163 4.18622C12.9599 4.32989 13.1303 4.44385 13.318 4.52161C13.5056 4.59937 13.7067 4.63939 13.9098 4.63939C14.3199 4.63939 14.7131 4.47651 15.003 4.18657C15.293 3.89664 15.4558 3.50341 15.4558 3.09339C15.4558 2.68336 15.293 2.29013 15.003 2.0002C14.7131 1.71027 14.3199 1.54739 13.9098 1.54739Z" fill="black"/>
</svg>
