<svg width="18" height="18" viewBox="0 0 18 18" fill="none" xmlns="http://www.w3.org/2000/svg">
<path d="M13.6234 17.3692C13.377 17.3687 13.1345 17.3076 12.9174 17.1912L9.0024 15.1312L5.0874 17.1912C4.87025 17.3076 4.62778 17.3687 4.3814 17.3692C4.15971 17.3684 3.94085 17.3193 3.74014 17.2252C3.53943 17.131 3.3617 16.9942 3.2194 16.8242C3.07718 16.6573 2.97366 16.461 2.91626 16.2494C2.85886 16.0378 2.849 15.8161 2.8874 15.6002L3.6244 11.2002L0.455396 8.06418C0.252287 7.86843 0.109006 7.61897 0.0422573 7.34489C-0.0244915 7.07081 -0.0119583 6.78341 0.0783956 6.51618C0.164645 6.24787 0.324404 6.00913 0.539528 5.82706C0.754653 5.64499 1.01652 5.52689 1.2954 5.48618L5.6754 4.83318L7.6424 0.846182C7.76747 0.592226 7.96116 0.378363 8.20152 0.228813C8.44188 0.079263 8.71931 0 9.0024 0C9.28548 0 9.56291 0.079263 9.80327 0.228813C10.0436 0.378363 10.2373 0.592226 10.3624 0.846182L12.3284 4.83318L16.7094 5.48618C16.9882 5.52681 17.2499 5.64476 17.465 5.82664C17.6802 6.00853 17.84 6.24706 17.9264 6.51518C18.0169 6.78232 18.0296 7.06966 17.963 7.34374C17.8964 7.61781 17.7533 7.86732 17.5504 8.06318L14.3794 11.2002L15.1164 15.6002C15.1549 15.8162 15.1452 16.0381 15.0878 16.2499C15.0304 16.4617 14.9268 16.6582 14.7844 16.8252C14.6421 16.9949 14.4645 17.1314 14.264 17.2254C14.0634 17.3194 13.8448 17.3684 13.6234 17.3692ZM9.0024 13.4172L13.6224 15.8492L12.7544 10.6692L16.4844 6.98518L11.3194 6.21518L9.0024 1.51618L6.6844 6.21618L1.5194 6.98618L5.2494 10.6702L4.3814 15.8502L9.0024 13.4172Z" fill="black"/>
</svg>
