<svg width="38" height="38" viewBox="0 0 38 38" fill="none" xmlns="http://www.w3.org/2000/svg">
<path d="M32.9236 8.17188C30.4079 7.92188 27.8923 7.73438 25.3611 7.59375V7.57812L25.0173 5.54688C24.7829 4.10938 24.4392 1.95312 20.7829 1.95312H16.6892C13.0486 1.95312 12.7048 4.01562 12.4548 5.53125L12.1267 7.53125C10.6736 7.625 9.22043 7.71875 7.76731 7.85938L4.57981 8.17188C3.92356 8.23438 3.45481 8.8125 3.51731 9.45313C3.57981 10.0938 4.14231 10.5625 4.79856 10.5L7.98606 10.1875C16.1736 9.375 24.4236 9.6875 32.7048 10.5156C32.7517 10.5156 32.7829 10.5156 32.8298 10.5156C33.4236 10.5156 33.9392 10.0625 34.0017 9.45313C34.0486 8.8125 33.5798 8.23438 32.9236 8.17188Z" fill="white"/>
<path d="M30.0461 12.7188C29.6711 12.3281 29.1555 12.1094 28.6242 12.1094H8.87424C8.34299 12.1094 7.81174 12.3281 7.45237 12.7188C7.09299 13.1094 6.88987 13.6406 6.92112 14.1875L7.88987 30.2188C8.06174 32.5938 8.28049 35.5625 13.7336 35.5625H23.7649C29.218 35.5625 29.4367 32.6094 29.6086 30.2188L30.5774 14.2031C30.6086 13.6406 30.4055 13.1094 30.0461 12.7188ZM21.343 27.7344H16.1399C15.4992 27.7344 14.968 27.2031 14.968 26.5625C14.968 25.9219 15.4992 25.3906 16.1399 25.3906H21.343C21.9836 25.3906 22.5149 25.9219 22.5149 26.5625C22.5149 27.2031 21.9836 27.7344 21.343 27.7344ZM22.6555 21.4844H14.843C14.2024 21.4844 13.6711 20.9531 13.6711 20.3125C13.6711 19.6719 14.2024 19.1406 14.843 19.1406H22.6555C23.2961 19.1406 23.8274 19.6719 23.8274 20.3125C23.8274 20.9531 23.2961 21.4844 22.6555 21.4844Z" fill="white"/>
</svg>
