<svg width="18" height="18" viewBox="0 0 18 18" fill="none" xmlns="http://www.w3.org/2000/svg">
<path d="M0 9C0 7.21997 0.527841 5.47991 1.51677 3.99987C2.50571 2.51983 3.91131 1.36628 5.55585 0.685088C7.20038 0.00389957 9.00998 -0.17433 10.7558 0.172937C12.5016 0.520203 14.1053 1.37737 15.364 2.63604C16.6226 3.89472 17.4798 5.49836 17.8271 7.24419C18.1743 8.99002 17.9961 10.7996 17.3149 12.4442C16.6337 14.0887 15.4802 15.4943 14.0001 16.4832C12.5201 17.4722 10.78 18 9 18C6.61386 17.9974 4.32622 17.0483 2.63896 15.361C0.951708 13.6738 0.00264685 11.3861 0 9H0ZM9 16.616C10.8808 16.6178 12.6952 15.9206 14.091 14.66C13.7003 14.3494 13.255 14.1147 12.778 13.968C12.678 13.93 12.566 13.893 12.43 13.847L12.074 13.727C10.786 13.292 10.206 12.941 9.957 12.119C9.93584 12.0514 9.91881 11.9826 9.906 11.913C9.81782 11.4799 9.86244 11.0303 10.034 10.623C10.1549 10.3388 10.3413 10.0873 10.578 9.889C10.8919 9.63481 11.1423 9.31096 11.3093 8.94314C11.4763 8.57533 11.5553 8.17366 11.54 7.77C11.5504 7.42631 11.4929 7.08395 11.3708 6.7625C11.2487 6.44106 11.0645 6.14685 10.8285 5.89671C10.5926 5.64657 10.3097 5.44541 9.9959 5.30476C9.68213 5.1641 9.34371 5.08671 9 5.077C8.65522 5.08311 8.31515 5.15808 7.99976 5.29751C7.68438 5.43695 7.40005 5.63802 7.1635 5.88893C6.92694 6.13983 6.74294 6.43549 6.6223 6.75853C6.50166 7.08157 6.44682 7.42546 6.461 7.77C6.44592 8.16716 6.52126 8.56256 6.68132 8.92634C6.84139 9.29013 7.082 9.6128 7.385 9.87C7.6013 10.0469 7.78012 10.2651 7.911 10.512C8.1407 10.9476 8.20567 11.4514 8.094 11.931C8.08434 11.9843 8.07063 12.0368 8.053 12.088C7.835 12.898 7.271 13.245 6.034 13.668L5.623 13.807C5.463 13.861 5.338 13.907 5.223 13.948C4.74507 14.1007 4.30027 14.3422 3.912 14.66C5.30708 15.9199 7.12023 16.6169 9 16.616ZM12.923 7.77C12.9373 8.37153 12.8154 8.9685 12.5664 9.51625C12.3174 10.064 11.9477 10.5483 11.485 10.933C11.4071 10.9956 11.3457 11.0763 11.306 11.168C11.2459 11.3227 11.232 11.4915 11.266 11.654C11.269 11.6712 11.273 11.6883 11.278 11.705C11.349 11.939 11.654 12.123 12.516 12.415L12.871 12.533C13.017 12.582 13.134 12.623 13.247 12.663C13.9012 12.8682 14.5085 13.2006 15.034 13.641C15.9019 12.5138 16.4367 11.1661 16.5779 9.75059C16.7191 8.33504 16.461 6.90825 15.8329 5.63187C15.2047 4.35548 14.2317 3.28054 13.0239 2.52883C11.8162 1.77711 10.4221 1.37869 8.9995 1.37869C7.57693 1.37869 6.1828 1.77711 4.97506 2.52883C3.76732 3.28054 2.79426 4.35548 2.16613 5.63187C1.538 6.90825 1.27991 8.33504 1.42111 9.75059C1.5623 11.1661 2.09713 12.5138 2.965 13.641C3.48585 13.1974 4.08852 12.86 4.739 12.648C4.871 12.599 5.007 12.548 5.177 12.494L5.586 12.356C6.386 12.083 6.667 11.909 6.735 11.667C6.735 11.673 6.735 11.662 6.741 11.636C6.77974 11.4746 6.76063 11.3048 6.687 11.156C6.63149 11.0588 6.55701 10.9738 6.468 10.906C6.01872 10.5186 5.66093 10.0365 5.4204 9.49418C5.17987 8.95191 5.06259 8.36305 5.077 7.77C5.06264 7.24362 5.15317 6.71964 5.34331 6.22859C5.53345 5.73753 5.81941 5.28923 6.18452 4.90978C6.54963 4.53034 6.9866 4.22734 7.46997 4.01844C7.95335 3.80954 8.47345 3.69891 9 3.693C9.52532 3.70302 10.0435 3.81643 10.525 4.02676C11.0065 4.23708 11.4418 4.54021 11.8061 4.91881C12.1704 5.29742 12.4565 5.74408 12.6482 6.2333C12.8398 6.72251 12.9332 7.24469 12.923 7.77Z" fill="#141124"/>
</svg>
