<svg width="40" height="40" viewBox="0 0 40 40" fill="none" xmlns="http://www.w3.org/2000/svg">
<g clip-path="url(#clip0_2001_2833)">
<path d="M34.9998 7.95719V36C34.9998 38.2091 33.209 40 30.9998 40H9C6.79086 40 5 38.2091 5 36V4C5 1.79086 6.79086 0 9 0H26.3367L34.9998 7.95719Z" fill="#6172F3"/>
<g filter="url(#filter0_d_2001_2833)">
<path d="M34.9998 7.95719H27.3367C26.7844 7.95719 26.3367 7.50947 26.3367 6.95719V0L34.9998 7.95719Z" fill="#C7D7FE"/>
</g>
<path d="M9.47334 23.682C10.1393 23.682 10.7213 23.814 11.2193 24.078C11.7173 24.342 12.1013 24.714 12.3713 25.194C12.6473 25.668 12.7853 26.217 12.7853 26.841C12.7853 27.459 12.6473 28.008 12.3713 28.488C12.1013 28.968 11.7143 29.34 11.2103 29.604C10.7123 29.868 10.1333 30 9.47334 30H7.10634V23.682H9.47334ZM9.37434 28.668C9.95634 28.668 10.4093 28.509 10.7333 28.191C11.0573 27.873 11.2193 27.423 11.2193 26.841C11.2193 26.259 11.0573 25.806 10.7333 25.482C10.4093 25.158 9.95634 24.996 9.37434 24.996H8.64534V28.668H9.37434ZM16.6334 30.063C16.0394 30.063 15.4934 29.925 14.9954 29.649C14.5034 29.373 14.1104 28.989 13.8164 28.497C13.5284 27.999 13.3844 27.441 13.3844 26.823C13.3844 26.205 13.5284 25.65 13.8164 25.158C14.1104 24.666 14.5034 24.282 14.9954 24.006C15.4934 23.73 16.0394 23.592 16.6334 23.592C17.2274 23.592 17.7704 23.73 18.2624 24.006C18.7604 24.282 19.1504 24.666 19.4324 25.158C19.7204 25.65 19.8644 26.205 19.8644 26.823C19.8644 27.441 19.7204 27.999 19.4324 28.497C19.1444 28.989 18.7544 29.373 18.2624 29.649C17.7704 29.925 17.2274 30.063 16.6334 30.063ZM16.6334 28.659C17.1374 28.659 17.5394 28.491 17.8394 28.155C18.1454 27.819 18.2984 27.375 18.2984 26.823C18.2984 26.265 18.1454 25.821 17.8394 25.491C17.5394 25.155 17.1374 24.987 16.6334 24.987C16.1234 24.987 15.7154 25.152 15.4094 25.482C15.1094 25.812 14.9594 26.259 14.9594 26.823C14.9594 27.381 15.1094 27.828 15.4094 28.164C15.7154 28.494 16.1234 28.659 16.6334 28.659ZM20.4596 26.832C20.4596 26.208 20.5946 25.653 20.8646 25.167C21.1346 24.675 21.5096 24.294 21.9896 24.024C22.4756 23.748 23.0246 23.61 23.6366 23.61C24.3866 23.61 25.0286 23.808 25.5626 24.204C26.0966 24.6 26.4536 25.14 26.6336 25.824H24.9416C24.8156 25.56 24.6356 25.359 24.4016 25.221C24.1736 25.083 23.9126 25.014 23.6186 25.014C23.1446 25.014 22.7606 25.179 22.4666 25.509C22.1726 25.839 22.0256 26.28 22.0256 26.832C22.0256 27.384 22.1726 27.825 22.4666 28.155C22.7606 28.485 23.1446 28.65 23.6186 28.65C23.9126 28.65 24.1736 28.581 24.4016 28.443C24.6356 28.305 24.8156 28.104 24.9416 27.84H26.6336C26.4536 28.524 26.0966 29.064 25.5626 29.46C25.0286 29.85 24.3866 30.045 23.6366 30.045C23.0246 30.045 22.4756 29.91 21.9896 29.64C21.5096 29.364 21.1346 28.983 20.8646 28.497C20.5946 28.011 20.4596 27.456 20.4596 26.832ZM31.4461 30L30.1591 28.065L29.0251 30H27.2791L29.3041 26.787L27.2341 23.682H29.0251L30.2941 25.59L31.4101 23.682H33.1561L31.1491 26.868L33.2371 30H31.4461Z" fill="white"/>
</g>
<defs>
<filter id="filter0_d_2001_2833" x="23.3367" y="-1" width="12.6631" height="11.9572" filterUnits="userSpaceOnUse" color-interpolation-filters="sRGB">
<feFlood flood-opacity="0" result="BackgroundImageFix"/>
<feColorMatrix in="SourceAlpha" type="matrix" values="0 0 0 0 0 0 0 0 0 0 0 0 0 0 0 0 0 0 127 0" result="hardAlpha"/>
<feOffset dx="-1" dy="1"/>
<feGaussianBlur stdDeviation="1"/>
<feComposite in2="hardAlpha" operator="out"/>
<feColorMatrix type="matrix" values="0 0 0 0 0 0 0 0 0 0 0 0 0 0 0 0 0 0 0.2 0"/>
<feBlend mode="normal" in2="BackgroundImageFix" result="effect1_dropShadow_2001_2833"/>
<feBlend mode="normal" in="SourceGraphic" in2="effect1_dropShadow_2001_2833" result="shape"/>
</filter>
<clipPath id="clip0_2001_2833">
<rect width="40" height="40" fill="white"/>
</clipPath>
</defs>
</svg>
