<svg width="180" height="180" viewBox="0 0 180 180" fill="none" xmlns="http://www.w3.org/2000/svg">
<ellipse opacity="0.1" cx="90" cy="174.6" rx="90" ry="5.4" fill="#2B2A7F"/>
<path fill-rule="evenodd" clip-rule="evenodd" d="M37.9708 23.8541C36.5572 21.6492 37.1987 18.7159 39.4036 17.3023C41.6084 15.8888 44.5417 16.5303 45.9553 18.7351L51.2206 26.9479C52.6342 29.1528 51.9927 32.0861 49.7878 33.4997C47.583 34.9132 44.6497 34.2717 43.2361 32.0669L37.9708 23.8541ZM41.3466 20.333C40.8155 20.6735 40.661 21.38 41.0014 21.9111L46.2668 30.1239C46.6072 30.655 47.3138 30.8095 47.8449 30.469C48.3759 30.1285 48.5304 29.422 48.19 28.8909L42.9247 20.6781C42.5842 20.147 41.8776 19.9925 41.3466 20.333ZM46.7992 73.3842C46.7992 50.1256 66.6388 30.5996 90.4093 30.5996C113.559 30.5996 132.981 49.1195 133.979 71.5707C124.098 74.9788 116.999 84.3603 116.999 95.3997C116.999 99.339 117.903 103.067 119.515 106.388C110.449 118.091 99.4359 127.975 93.5152 132.949C91.6996 134.474 89.1184 134.473 87.3015 132.947C81.6927 128.235 71.5061 119.11 62.737 108.203C53.9074 97.2217 46.7992 84.7779 46.7992 73.3842ZM121.468 109.731C116.918 115.472 111.967 120.74 107.426 125.184C114.703 126.09 121.04 127.585 125.757 129.508C128.412 130.59 130.65 131.847 132.256 133.287C133.858 134.725 134.999 136.509 134.999 138.6C134.999 141.218 133.226 143.346 130.911 144.976C128.548 146.641 125.244 148.067 121.324 149.235C113.46 151.577 102.704 153 90.8992 153C79.0946 153 68.3384 151.577 60.4747 149.235C56.5544 148.067 53.2508 146.641 50.8869 144.976C48.5719 143.346 46.7992 141.218 46.7992 138.6C46.7992 136.509 47.9408 134.725 49.5428 133.287C51.1479 131.847 53.3867 130.59 56.0414 129.508C60.5706 127.661 66.5928 126.21 73.5059 125.295C69.1266 121.016 64.358 115.965 59.9314 110.459C51.0136 99.3677 43.1992 86.087 43.1992 73.3842C43.1992 48.0753 64.7131 26.9996 90.4093 26.9996C115.168 26.9996 136.043 46.5649 137.534 70.6306C139.046 70.3476 140.605 70.1997 142.199 70.1997C156.117 70.1997 167.399 81.4821 167.399 95.3997C167.399 109.317 156.117 120.6 142.199 120.6C133.606 120.6 126.017 116.298 121.468 109.731ZM104.241 128.235C100.966 131.305 98.0426 133.847 95.8308 135.705C92.675 138.356 88.1404 138.353 84.986 135.703C82.842 133.902 80.0315 131.46 76.8809 128.518C68.9123 129.365 62.1539 130.903 57.4005 132.841C54.948 133.841 53.1259 134.909 51.9469 135.967C50.7648 137.027 50.3992 137.914 50.3992 138.6C50.3992 139.461 50.9937 140.648 52.9597 142.033C54.8768 143.383 57.7679 144.672 61.5024 145.784C68.9483 148.002 79.3421 149.4 90.8992 149.4C102.456 149.4 112.85 148.002 120.296 145.784C124.03 144.672 126.922 143.383 128.839 142.033C130.805 140.648 131.399 139.461 131.399 138.6C131.399 137.914 131.034 137.027 129.851 135.967C128.672 134.909 126.85 133.841 124.398 132.841C119.506 130.847 112.491 129.275 104.22 128.446L104.241 128.235ZM90.4072 88.2508C98.767 88.2508 105.544 81.5971 105.544 73.3893C105.544 65.1815 98.767 58.5278 90.4072 58.5278C82.0474 58.5278 75.2705 65.1815 75.2705 73.3893C75.2705 81.5971 82.0474 88.2508 90.4072 88.2508ZM25.0323 34.9751C24.0794 37.4147 25.2846 40.1648 27.7242 41.1177L36.8113 44.6672C39.2509 45.6201 42.001 44.4149 42.9539 41.9753C43.9068 39.5357 42.7016 36.7855 40.262 35.8326L31.175 32.2832C28.7354 31.3303 25.9852 32.5355 25.0323 34.9751ZM29.034 37.7645C28.4464 37.5349 28.1561 36.8725 28.3856 36.2849C28.6151 35.6973 29.2776 35.407 29.8652 35.6365L38.9522 39.1859C39.5399 39.4154 39.8302 40.0779 39.6006 40.6655C39.3711 41.2531 38.7087 41.5434 38.1211 41.3139L29.034 37.7645ZM120.599 95.3997C120.599 83.4703 130.27 73.7997 142.199 73.7997C154.129 73.7997 163.799 83.4703 163.799 95.3997C163.799 107.329 154.129 117 142.199 117C130.27 117 120.599 107.329 120.599 95.3997ZM137.699 83.6997C137.699 81.2144 139.714 79.1997 142.199 79.1997C144.684 79.1997 146.699 81.2144 146.699 83.6997V94.4997C146.699 96.985 144.684 98.9997 142.199 98.9997C139.714 98.9997 137.699 96.985 137.699 94.4997V83.6997ZM142.199 82.7997C141.702 82.7997 141.299 83.2026 141.299 83.6997V94.4997C141.299 94.9968 141.702 95.3997 142.199 95.3997C142.696 95.3997 143.099 94.9968 143.099 94.4997V83.6997C143.099 83.2026 142.696 82.7997 142.199 82.7997ZM142.199 111.6C139.714 111.6 137.699 109.585 137.699 107.1C137.699 104.614 139.714 102.6 142.199 102.6C144.684 102.6 146.699 104.614 146.699 107.1C146.699 109.585 144.684 111.6 142.199 111.6ZM141.299 107.1C141.299 107.597 141.702 108 142.199 108C142.696 108 143.099 107.597 143.099 107.1C143.099 106.603 142.696 106.2 142.199 106.2C141.702 106.2 141.299 106.603 141.299 107.1Z" fill="#2B2A7F"/>
</svg>
