<svg width="180" height="180" viewBox="0 0 180 180" fill="none" xmlns="http://www.w3.org/2000/svg">
<ellipse opacity="0.1" cx="90" cy="174.6" rx="90" ry="5.4" fill="#2B2A7F"/>
<path fill-rule="evenodd" clip-rule="evenodd" d="M118.651 33.2248C118.827 30.6116 121.087 28.6353 123.7 28.8106C126.314 28.986 128.29 31.2465 128.115 33.8597L127.461 43.5935C127.286 46.2067 125.026 48.183 122.412 48.0077C119.799 47.8323 117.823 45.5718 117.998 42.9586L118.651 33.2248ZM123.459 32.4025C122.83 32.3603 122.285 32.8363 122.243 33.4658L121.59 43.1996C121.548 43.829 122.024 44.3735 122.653 44.4157C123.283 44.458 123.827 43.9819 123.87 43.3525L124.523 33.6187C124.565 32.9893 124.089 32.4448 123.459 32.4025ZM127.641 53.4203C127.816 50.8071 130.077 48.8308 132.69 49.0061L142.424 49.6592C145.037 49.8346 147.013 52.0951 146.838 54.7083C146.662 57.3215 144.402 59.2978 141.789 59.1225L132.055 58.4694C129.442 58.294 127.465 56.0335 127.641 53.4203ZM132.449 52.5981C131.819 52.5558 131.275 53.0319 131.233 53.6613C131.19 54.2907 131.666 54.8352 132.296 54.8775L142.03 55.5306C142.659 55.5728 143.204 55.0968 143.246 54.4673C143.288 53.8379 142.812 53.2934 142.183 53.2512L132.449 52.5981ZM134.079 83.4899L120.167 56.486L120.069 56.5364C118.764 53.345 116.163 50.7125 112.699 49.457L94.0745 42.7067C90.7369 41.497 87.0439 41.7514 83.9038 43.4073L30.1257 71.7656C23.9703 75.0115 21.6117 82.6327 24.8576 88.7882L38.532 114.72C41.7563 120.835 49.2981 123.203 55.4317 120.052C52.9641 126.027 55.4358 133.001 61.2814 136.033L87.5108 149.641C93.5929 152.796 101.082 150.513 104.369 144.501L114.248 126.431C118.808 130.991 125.108 133.811 132.066 133.811C145.984 133.811 157.266 122.528 157.266 108.611C157.266 95.3705 147.055 84.5152 134.079 83.4899ZM130.03 83.4918L120.477 64.9489L115.656 83.6329C114.769 87.0703 112.473 89.974 109.333 91.6299L60.4705 117.396L60.739 117.535L59.0949 120.704C56.8059 125.116 58.5271 130.549 62.9392 132.838L89.1686 146.445C93.513 148.699 98.8621 147.068 101.21 142.774L111.742 123.511C108.677 119.338 106.866 114.186 106.866 108.611C106.866 95.3787 117.065 84.5286 130.03 83.4918ZM111.472 52.8415C115.834 54.4224 118.279 59.0597 117.12 63.5518L112.17 82.7334C111.536 85.1886 109.896 87.2627 107.653 88.4455L53.8753 116.804C49.4786 119.122 44.0349 117.438 41.7164 113.041L28.042 87.109C25.7235 82.7122 27.4082 77.2685 31.8049 74.95L85.583 46.5917C87.826 45.4089 90.4638 45.2272 92.8478 46.0912L111.472 52.8415ZM54.0239 111.222L59.6139 108.275C62.2519 106.883 63.2627 103.617 61.8716 100.979L49.6722 77.8444C48.2811 75.2063 45.0148 74.1955 42.3768 75.5866L36.7868 78.5343C34.1488 79.9254 33.138 83.1916 34.5291 85.8297L46.7285 108.964C48.1196 111.602 51.3859 112.613 54.0239 111.222ZM57.5819 69.2324C57.1104 68.3573 56.0187 68.03 55.1435 68.5016C54.2683 68.9731 53.9411 70.0648 54.4126 70.94L69.1743 98.3378C69.6458 99.213 70.7375 99.5402 71.6127 99.0686C72.4878 98.5971 72.8151 97.5054 72.3435 96.6302L57.5819 69.2324ZM96.9725 77.7972C92.45 80.182 86.8505 78.4491 84.4656 73.9265C82.0808 69.404 83.8138 63.8045 88.3363 61.4197C92.8588 59.0348 98.4583 60.7678 100.843 65.2903C103.228 69.8129 101.495 75.4124 96.9725 77.7972ZM110.466 108.611C110.466 96.6814 120.137 87.0107 132.066 87.0107C143.996 87.0107 153.666 96.6814 153.666 108.611C153.666 120.54 143.996 130.211 132.066 130.211C120.137 130.211 110.466 120.54 110.466 108.611ZM127.566 96.9108C127.566 94.4255 129.581 92.4108 132.066 92.4108C134.552 92.4108 136.566 94.4255 136.566 96.9108V107.711C136.566 110.196 134.552 112.211 132.066 112.211C129.581 112.211 127.566 110.196 127.566 107.711V96.9108ZM132.066 96.0107C131.569 96.0107 131.166 96.4137 131.166 96.9108V107.711C131.166 108.208 131.569 108.611 132.066 108.611C132.563 108.611 132.966 108.208 132.966 107.711V96.9108C132.966 96.4137 132.563 96.0107 132.066 96.0107ZM132.066 124.811C129.581 124.811 127.566 122.796 127.566 120.311C127.566 117.825 129.581 115.811 132.066 115.811C134.552 115.811 136.566 117.825 136.566 120.311C136.566 122.796 134.552 124.811 132.066 124.811ZM131.166 120.311C131.166 120.808 131.569 121.211 132.066 121.211C132.563 121.211 132.966 120.808 132.966 120.311C132.966 119.814 132.563 119.411 132.066 119.411C131.569 119.411 131.166 119.814 131.166 120.311Z" fill="#2B2A7F"/>
</svg>
